999
"DXF R12 Output" (www.mydxf.blogspot.com)
 0 
SECTION
 2 
HEADER
 9 
$ACADVER
 1 
AC1009
 9 
$EXTMIN
 10 
 0 
 20 
 0 
 9 
$EXTMAX
 10 
 8.5 
 20 
 11 
 0 
ENDSEC
 0 
SECTION
 2 
ENTITIES
0
LINE
8
Layer 1
10
0.793749
20
210.793749
11
-0.793749
21
209.206251
0
LINE
8
Layer 1
10
0.000000
20
211.322915
11
0.000000
21
208.677085
0
LINE
8
Layer 1
10
2.116664
20
208.941668
11
1.058332
21
207.883336
0
LINE
8
Layer 1
10
1.587498
20
209.470834
11
0.529166
21
208.412502
0
LINE
8
Layer 1
10
1.058332
20
210.000000
11
0.000000
21
208.941668
0
LINE
8
0
10
63.470411
20
156.735860
11
63.317546
21
158.246932
0
LINE
8
0
10
63.317546
20
158.246932
11
62.880214
21
159.654290
0
LINE
8
0
10
62.880214
20
159.654290
11
62.188557
21
160.927801
0
LINE
8
0
10
62.188557
20
160.927801
11
61.272719
21
162.037333
0
LINE
8
0
10
61.272719
20
162.037333
11
60.162843
21
162.952754
0
LINE
8
0
10
60.162843
20
162.952754
11
58.889073
21
163.643932
0
LINE
8
0
10
58.889073
20
163.643932
11
57.481551
21
164.080736
0
LINE
8
0
10
57.481551
20
164.080736
11
55.970421
21
164.233033
0
LINE
8
0
10
55.970421
20
164.233033
11
54.459291
21
164.080736
0
LINE
8
0
10
54.459291
20
164.080736
11
53.051769
21
163.643932
0
LINE
8
0
10
53.051769
20
163.643932
11
51.777999
21
162.952754
0
LINE
8
0
10
51.777999
20
162.952754
11
50.668123
21
162.037333
0
LINE
8
0
10
50.668123
20
162.037333
11
49.752285
21
160.927801
0
LINE
8
0
10
49.752285
20
160.927801
11
49.060628
21
159.654290
0
LINE
8
0
10
49.060628
20
159.654290
11
48.623296
21
158.246932
0
LINE
8
0
10
48.623296
20
158.246932
11
48.470431
21
156.735860
0
LINE
8
0
10
48.470431
20
156.735860
11
48.623296
21
155.224787
0
LINE
8
0
10
48.623296
20
155.224787
11
49.060628
21
153.817429
0
LINE
8
0
10
49.060628
20
153.817429
11
49.752285
21
152.543919
0
LINE
8
0
10
49.752285
20
152.543919
11
50.668123
21
151.434387
0
LINE
8
0
10
50.668123
20
151.434387
11
51.777999
21
150.518966
0
LINE
8
0
10
51.777999
20
150.518966
11
53.051769
21
149.827787
0
LINE
8
0
10
53.051769
20
149.827787
11
54.459291
21
149.390984
0
LINE
8
0
10
54.459291
20
149.390984
11
55.970421
21
149.238686
0
LINE
8
0
10
55.970421
20
149.238686
11
57.481551
21
149.390984
0
LINE
8
0
10
57.481551
20
149.390984
11
58.889073
21
149.827787
0
LINE
8
0
10
58.889073
20
149.827787
11
60.162843
21
150.518966
0
LINE
8
0
10
60.162843
20
150.518966
11
61.272719
21
151.434387
0
LINE
8
0
10
61.272719
20
151.434387
11
62.188557
21
152.543919
0
LINE
8
0
10
62.188557
20
152.543919
11
62.880214
21
153.817429
0
LINE
8
0
10
62.880214
20
153.817429
11
63.317546
21
155.224787
0
LINE
8
0
10
63.317546
20
155.224787
11
63.470411
21
156.735860
0
LINE
8
0
10
63.470411
20
156.735860
11
63.470411
21
156.735860
0
LINE
8
0
10
63.470411
20
55.136517
11
63.317546
21
56.647589
0
LINE
8
0
10
63.317546
20
56.647589
11
62.880214
21
58.054947
0
LINE
8
0
10
62.880214
20
58.054947
11
62.188557
21
59.328458
0
LINE
8
0
10
62.188557
20
59.328458
11
61.272719
21
60.437990
0
LINE
8
0
10
61.272719
20
60.437990
11
60.162843
21
61.353411
0
LINE
8
0
10
60.162843
20
61.353411
11
58.889073
21
62.044589
0
LINE
8
0
10
58.889073
20
62.044589
11
57.481551
21
62.481393
0
LINE
8
0
10
57.481551
20
62.481393
11
55.970421
21
62.633690
0
LINE
8
0
10
55.970421
20
62.633690
11
54.459291
21
62.481393
0
LINE
8
0
10
54.459291
20
62.481393
11
53.051769
21
62.044589
0
LINE
8
0
10
53.051769
20
62.044589
11
51.777999
21
61.353411
0
LINE
8
0
10
51.777999
20
61.353411
11
50.668123
21
60.437990
0
LINE
8
0
10
50.668123
20
60.437990
11
49.752285
21
59.328458
0
LINE
8
0
10
49.752285
20
59.328458
11
49.060628
21
58.054947
0
LINE
8
0
10
49.060628
20
58.054947
11
48.623296
21
56.647589
0
LINE
8
0
10
48.623296
20
56.647589
11
48.470431
21
55.136517
0
LINE
8
0
10
48.470431
20
55.136517
11
48.623296
21
53.625444
0
LINE
8
0
10
48.623296
20
53.625444
11
49.060628
21
52.218086
0
LINE
8
0
10
49.060628
20
52.218086
11
49.752285
21
50.944576
0
LINE
8
0
10
49.752285
20
50.944576
11
50.668123
21
49.835044
0
LINE
8
0
10
50.668123
20
49.835044
11
51.777999
21
48.919623
0
LINE
8
0
10
51.777999
20
48.919623
11
53.051769
21
48.228445
0
LINE
8
0
10
53.051769
20
48.228445
11
54.459291
21
47.791641
0
LINE
8
0
10
54.459291
20
47.791641
11
55.970421
21
47.639344
0
LINE
8
0
10
55.970421
20
47.639344
11
57.481551
21
47.791641
0
LINE
8
0
10
57.481551
20
47.791641
11
58.889073
21
48.228445
0
LINE
8
0
10
58.889073
20
48.228445
11
60.162843
21
48.919623
0
LINE
8
0
10
60.162843
20
48.919623
11
61.272719
21
49.835044
0
LINE
8
0
10
61.272719
20
49.835044
11
62.188557
21
50.944576
0
LINE
8
0
10
62.188557
20
50.944576
11
62.880214
21
52.218086
0
LINE
8
0
10
62.880214
20
52.218086
11
63.317546
21
53.625444
0
LINE
8
0
10
63.317546
20
53.625444
11
63.470411
21
55.136517
0
LINE
8
0
10
63.470411
20
55.136517
11
63.470411
21
55.136517
0
LINE
8
0
10
130.485769
20
113.436188
11
130.485769
21
93.436200
0
LINE
8
0
10
130.485769
20
93.436200
11
130.399230
21
92.783906
0
LINE
8
0
10
130.399230
20
92.783906
11
130.150833
21
92.186201
0
LINE
8
0
10
130.150833
20
92.186201
11
129.757403
21
91.672230
0
LINE
8
0
10
129.757403
20
91.672230
11
129.235770
21
91.271139
0
LINE
8
0
10
129.235770
20
91.271139
11
128.627598
21
91.019937
0
LINE
8
0
10
128.627598
20
91.019937
11
127.985772
21
90.936203
0
LINE
8
0
10
127.985772
20
90.936203
11
127.343945
21
91.019937
0
LINE
8
0
10
127.343945
20
91.019937
11
126.735773
21
91.271139
0
LINE
8
0
10
126.735773
20
91.271139
11
126.214140
21
91.672230
0
LINE
8
0
10
126.214140
20
91.672230
11
125.820710
21
92.186201
0
LINE
8
0
10
125.820710
20
92.186201
11
125.572313
21
92.783906
0
LINE
8
0
10
125.572313
20
92.783906
11
125.485774
21
93.436200
0
LINE
8
0
10
125.485774
20
93.436200
11
125.485774
21
113.436188
0
LINE
8
0
10
125.485774
20
113.436188
11
125.572313
21
114.088481
0
LINE
8
0
10
125.572313
20
114.088481
11
125.820710
21
114.686186
0
LINE
8
0
10
125.820710
20
114.686186
11
126.214140
21
115.200157
0
LINE
8
0
10
126.214140
20
115.200157
11
126.735773
21
115.601249
0
LINE
8
0
10
126.735773
20
115.601249
11
127.343945
21
115.852451
0
LINE
8
0
10
127.343945
20
115.852451
11
127.985772
21
115.936185
0
LINE
8
0
10
127.985772
20
115.936185
11
128.627598
21
115.852451
0
LINE
8
0
10
128.627598
20
115.852451
11
129.235770
21
115.601249
0
LINE
8
0
10
129.235770
20
115.601249
11
129.757403
21
115.200157
0
LINE
8
0
10
129.757403
20
115.200157
11
130.150833
21
114.686186
0
LINE
8
0
10
130.150833
20
114.686186
11
130.399230
21
114.088481
0
LINE
8
0
10
130.399230
20
114.088481
11
130.485769
21
113.436188
0
LINE
8
0
10
130.485769
20
113.436188
11
130.485769
21
113.436188
0
LINE
8
0
10
173.485713
20
113.436188
11
173.485713
21
93.436200
0
LINE
8
0
10
173.485713
20
93.436200
11
173.399175
21
92.783906
0
LINE
8
0
10
173.399175
20
92.783906
11
173.150777
21
92.186201
0
LINE
8
0
10
173.150777
20
92.186201
11
172.757348
21
91.672230
0
LINE
8
0
10
172.757348
20
91.672230
11
172.235715
21
91.271139
0
LINE
8
0
10
172.235715
20
91.271139
11
171.627543
21
91.019937
0
LINE
8
0
10
171.627543
20
91.019937
11
170.985716
21
90.936203
0
LINE
8
0
10
170.985716
20
90.936203
11
170.343889
21
91.019937
0
LINE
8
0
10
170.343889
20
91.019937
11
169.735717
21
91.271139
0
LINE
8
0
10
169.735717
20
91.271139
11
169.214084
21
91.672230
0
LINE
8
0
10
169.214084
20
91.672230
11
168.820655
21
92.186201
0
LINE
8
0
10
168.820655
20
92.186201
11
168.572257
21
92.783906
0
LINE
8
0
10
168.572257
20
92.783906
11
168.485719
21
93.436200
0
LINE
8
0
10
168.485719
20
93.436200
11
168.485719
21
113.436188
0
LINE
8
0
10
168.485719
20
113.436188
11
168.572257
21
114.088481
0
LINE
8
0
10
168.572257
20
114.088481
11
168.820655
21
114.686186
0
LINE
8
0
10
168.820655
20
114.686186
11
169.214084
21
115.200157
0
LINE
8
0
10
169.214084
20
115.200157
11
169.735717
21
115.601249
0
LINE
8
0
10
169.735717
20
115.601249
11
170.343889
21
115.852451
0
LINE
8
0
10
170.343889
20
115.852451
11
170.985716
21
115.936185
0
LINE
8
0
10
170.985716
20
115.936185
11
171.627543
21
115.852451
0
LINE
8
0
10
171.627543
20
115.852451
11
172.235715
21
115.601249
0
LINE
8
0
10
172.235715
20
115.601249
11
172.757348
21
115.200157
0
LINE
8
0
10
172.757348
20
115.200157
11
173.150777
21
114.686186
0
LINE
8
0
10
173.150777
20
114.686186
11
173.399175
21
114.088481
0
LINE
8
0
10
173.399175
20
114.088481
11
173.485713
21
113.436188
0
LINE
8
0
10
173.485713
20
113.436188
11
173.485713
21
113.436188
0
LINE
8
0
10
65.801694
20
65.023849
11
65.693466
21
65.558866
0
LINE
8
0
10
65.693466
20
65.558866
11
65.398753
21
65.995729
0
LINE
8
0
10
65.398753
20
65.995729
11
64.961761
21
66.290251
0
LINE
8
0
10
64.961761
20
66.290251
11
64.426696
21
66.398244
0
LINE
8
0
10
64.426696
20
66.398244
11
63.891631
21
66.290251
0
LINE
8
0
10
63.891631
20
66.290251
11
63.454639
21
65.995729
0
LINE
8
0
10
63.454639
20
65.995729
11
63.159926
21
65.558866
0
LINE
8
0
10
63.159926
20
65.558866
11
63.051698
21
65.023849
0
LINE
8
0
10
63.051698
20
65.023849
11
63.159926
21
64.488831
0
LINE
8
0
10
63.159926
20
64.488831
11
63.454639
21
64.051968
0
LINE
8
0
10
63.454639
20
64.051968
11
63.891631
21
63.757447
0
LINE
8
0
10
63.891631
20
63.757447
11
64.426696
21
63.649453
0
LINE
8
0
10
64.426696
20
63.649453
11
64.961761
21
63.757447
0
LINE
8
0
10
64.961761
20
63.757447
11
65.398753
21
64.051968
0
LINE
8
0
10
65.398753
20
64.051968
11
65.693466
21
64.488831
0
LINE
8
0
10
65.693466
20
64.488831
11
65.801694
21
65.023849
0
LINE
8
0
10
65.801694
20
65.023849
11
65.801694
21
65.023849
0
LINE
8
0
10
114.801632
20
65.023849
11
114.693405
21
65.558866
0
LINE
8
0
10
114.693405
20
65.558866
11
114.398692
21
65.995729
0
LINE
8
0
10
114.398692
20
65.995729
11
113.961699
21
66.290251
0
LINE
8
0
10
113.961699
20
66.290251
11
113.426634
21
66.398244
0
LINE
8
0
10
113.426634
20
66.398244
11
112.891569
21
66.290251
0
LINE
8
0
10
112.891569
20
66.290251
11
112.454577
21
65.995729
0
LINE
8
0
10
112.454577
20
65.995729
11
112.159864
21
65.558866
0
LINE
8
0
10
112.159864
20
65.558866
11
112.051636
21
65.023849
0
LINE
8
0
10
112.051636
20
65.023849
11
112.159864
21
64.488831
0
LINE
8
0
10
112.159864
20
64.488831
11
112.454577
21
64.051968
0
LINE
8
0
10
112.454577
20
64.051968
11
112.891569
21
63.757447
0
LINE
8
0
10
112.891569
20
63.757447
11
113.426634
21
63.649453
0
LINE
8
0
10
113.426634
20
63.649453
11
113.961699
21
63.757447
0
LINE
8
0
10
113.961699
20
63.757447
11
114.398692
21
64.051968
0
LINE
8
0
10
114.398692
20
64.051968
11
114.693405
21
64.488831
0
LINE
8
0
10
114.693405
20
64.488831
11
114.801632
21
65.023849
0
LINE
8
0
10
114.801632
20
65.023849
11
114.801632
21
65.023849
0
LINE
8
0
10
65.801694
20
123.023776
11
65.693466
21
123.558794
0
LINE
8
0
10
65.693466
20
123.558794
11
65.398753
21
123.995657
0
LINE
8
0
10
65.398753
20
123.995657
11
64.961761
21
124.290178
0
LINE
8
0
10
64.961761
20
124.290178
11
64.426696
21
124.398171
0
LINE
8
0
10
64.426696
20
124.398171
11
63.891631
21
124.290178
0
LINE
8
0
10
63.891631
20
124.290178
11
63.454639
21
123.995657
0
LINE
8
0
10
63.454639
20
123.995657
11
63.159926
21
123.558794
0
LINE
8
0
10
63.159926
20
123.558794
11
63.051698
21
123.023776
0
LINE
8
0
10
63.051698
20
123.023776
11
63.159926
21
122.488758
0
LINE
8
0
10
63.159926
20
122.488758
11
63.454639
21
122.051895
0
LINE
8
0
10
63.454639
20
122.051895
11
63.891631
21
121.757374
0
LINE
8
0
10
63.891631
20
121.757374
11
64.426696
21
121.649381
0
LINE
8
0
10
64.426696
20
121.649381
11
64.961761
21
121.757374
0
LINE
8
0
10
64.961761
20
121.757374
11
65.398753
21
122.051895
0
LINE
8
0
10
65.398753
20
122.051895
11
65.693466
21
122.488758
0
LINE
8
0
10
65.693466
20
122.488758
11
65.801694
21
123.023776
0
LINE
8
0
10
65.801694
20
123.023776
11
65.801694
21
123.023776
0
LINE
8
0
10
114.801632
20
123.023776
11
114.693405
21
123.558794
0
LINE
8
0
10
114.693405
20
123.558794
11
114.398692
21
123.995657
0
LINE
8
0
10
114.398692
20
123.995657
11
113.961699
21
124.290178
0
LINE
8
0
10
113.961699
20
124.290178
11
113.426634
21
124.398171
0
LINE
8
0
10
113.426634
20
124.398171
11
112.891569
21
124.290178
0
LINE
8
0
10
112.891569
20
124.290178
11
112.454577
21
123.995657
0
LINE
8
0
10
112.454577
20
123.995657
11
112.159864
21
123.558794
0
LINE
8
0
10
112.159864
20
123.558794
11
112.051636
21
123.023776
0
LINE
8
0
10
112.051636
20
123.023776
11
112.159864
21
122.488758
0
LINE
8
0
10
112.159864
20
122.488758
11
112.454577
21
122.051895
0
LINE
8
0
10
112.454577
20
122.051895
11
112.891569
21
121.757374
0
LINE
8
0
10
112.891569
20
121.757374
11
113.426634
21
121.649381
0
LINE
8
0
10
113.426634
20
121.649381
11
113.961699
21
121.757374
0
LINE
8
0
10
113.961699
20
121.757374
11
114.398692
21
122.051895
0
LINE
8
0
10
114.398692
20
122.051895
11
114.693405
21
122.488758
0
LINE
8
0
10
114.693405
20
122.488758
11
114.801632
21
123.023776
0
LINE
8
0
10
114.801632
20
123.023776
11
114.801632
21
123.023776
0
LINE
8
0
10
47.535871
20
25.936290
11
47.452928
21
26.344518
0
LINE
8
0
10
47.452928
20
26.344518
11
47.227807
21
26.677788
0
LINE
8
0
10
47.227807
20
26.677788
11
46.894219
21
26.902435
0
LINE
8
0
10
46.894219
20
26.902435
11
46.485873
21
26.984798
0
LINE
8
0
10
46.485873
20
26.984798
11
46.077528
21
26.902435
0
LINE
8
0
10
46.077528
20
26.902435
11
45.743939
21
26.677788
0
LINE
8
0
10
45.743939
20
26.677788
11
45.518818
21
26.344518
0
LINE
8
0
10
45.518818
20
26.344518
11
45.435876
21
25.936290
0
LINE
8
0
10
45.435876
20
25.936290
11
45.518818
21
25.528062
0
LINE
8
0
10
45.518818
20
25.528062
11
45.743939
21
25.194793
0
LINE
8
0
10
45.743939
20
25.194793
11
46.077528
21
24.970145
0
LINE
8
0
10
46.077528
20
24.970145
11
46.485873
21
24.887782
0
LINE
8
0
10
46.485873
20
24.887782
11
46.894219
21
24.970145
0
LINE
8
0
10
46.894219
20
24.970145
11
47.227807
21
25.194793
0
LINE
8
0
10
47.227807
20
25.194793
11
47.452928
21
25.528062
0
LINE
8
0
10
47.452928
20
25.528062
11
47.535871
21
25.936290
0
LINE
8
0
10
47.535871
20
25.936290
11
47.535871
21
25.936290
0
LINE
8
0
10
31.535891
20
41.936286
11
31.452948
21
42.344514
0
LINE
8
0
10
31.452948
20
42.344514
11
31.227827
21
42.677783
0
LINE
8
0
10
31.227827
20
42.677783
11
30.894239
21
42.902431
0
LINE
8
0
10
30.894239
20
42.902431
11
30.485894
21
42.984794
0
LINE
8
0
10
30.485894
20
42.984794
11
30.077548
21
42.902431
0
LINE
8
0
10
30.077548
20
42.902431
11
29.743960
21
42.677783
0
LINE
8
0
10
29.743960
20
42.677783
11
29.518839
21
42.344514
0
LINE
8
0
10
29.518839
20
42.344514
11
29.435896
21
41.936286
0
LINE
8
0
10
29.435896
20
41.936286
11
29.518839
21
41.528058
0
LINE
8
0
10
29.518839
20
41.528058
11
29.743960
21
41.194788
0
LINE
8
0
10
29.743960
20
41.194788
11
30.077548
21
40.970141
0
LINE
8
0
10
30.077548
20
40.970141
11
30.485894
21
40.887778
0
LINE
8
0
10
30.485894
20
40.887778
11
30.894239
21
40.970141
0
LINE
8
0
10
30.894239
20
40.970141
11
31.227827
21
41.194788
0
LINE
8
0
10
31.227827
20
41.194788
11
31.452948
21
41.528058
0
LINE
8
0
10
31.452948
20
41.528058
11
31.535891
21
41.936286
0
LINE
8
0
10
31.535891
20
41.936286
11
31.535891
21
41.936286
0
LINE
8
0
10
39.535881
20
41.936286
11
39.452938
21
42.344514
0
LINE
8
0
10
39.452938
20
42.344514
11
39.227817
21
42.677783
0
LINE
8
0
10
39.227817
20
42.677783
11
38.894229
21
42.902431
0
LINE
8
0
10
38.894229
20
42.902431
11
38.485883
21
42.984794
0
LINE
8
0
10
38.485883
20
42.984794
11
38.077538
21
42.902431
0
LINE
8
0
10
38.077538
20
42.902431
11
37.743949
21
42.677783
0
LINE
8
0
10
37.743949
20
42.677783
11
37.518829
21
42.344514
0
LINE
8
0
10
37.518829
20
42.344514
11
37.435886
21
41.936286
0
LINE
8
0
10
37.435886
20
41.936286
11
37.518829
21
41.528058
0
LINE
8
0
10
37.518829
20
41.528058
11
37.743949
21
41.194788
0
LINE
8
0
10
37.743949
20
41.194788
11
38.077538
21
40.970141
0
LINE
8
0
10
38.077538
20
40.970141
11
38.485883
21
40.887778
0
LINE
8
0
10
38.485883
20
40.887778
11
38.894229
21
40.970141
0
LINE
8
0
10
38.894229
20
40.970141
11
39.227817
21
41.194788
0
LINE
8
0
10
39.227817
20
41.194788
11
39.452938
21
41.528058
0
LINE
8
0
10
39.452938
20
41.528058
11
39.535881
21
41.936286
0
LINE
8
0
10
39.535881
20
41.936286
11
39.535881
21
41.936286
0
LINE
8
0
10
39.535881
20
25.936290
11
39.452938
21
26.344518
0
LINE
8
0
10
39.452938
20
26.344518
11
39.227817
21
26.677788
0
LINE
8
0
10
39.227817
20
26.677788
11
38.894229
21
26.902435
0
LINE
8
0
10
38.894229
20
26.902435
11
38.485883
21
26.984798
0
LINE
8
0
10
38.485883
20
26.984798
11
38.077538
21
26.902435
0
LINE
8
0
10
38.077538
20
26.902435
11
37.743949
21
26.677788
0
LINE
8
0
10
37.743949
20
26.677788
11
37.518829
21
26.344518
0
LINE
8
0
10
37.518829
20
26.344518
11
37.435886
21
25.936290
0
LINE
8
0
10
37.435886
20
25.936290
11
37.518829
21
25.528062
0
LINE
8
0
10
37.518829
20
25.528062
11
37.743949
21
25.194793
0
LINE
8
0
10
37.743949
20
25.194793
11
38.077538
21
24.970145
0
LINE
8
0
10
38.077538
20
24.970145
11
38.485883
21
24.887782
0
LINE
8
0
10
38.485883
20
24.887782
11
38.894229
21
24.970145
0
LINE
8
0
10
38.894229
20
24.970145
11
39.227817
21
25.194793
0
LINE
8
0
10
39.227817
20
25.194793
11
39.452938
21
25.528062
0
LINE
8
0
10
39.452938
20
25.528062
11
39.535881
21
25.936290
0
LINE
8
0
10
39.535881
20
25.936290
11
39.535881
21
25.936290
0
LINE
8
0
10
47.535871
20
33.936275
11
47.452928
21
34.344503
0
LINE
8
0
10
47.452928
20
34.344503
11
47.227807
21
34.677772
0
LINE
8
0
10
47.227807
20
34.677772
11
46.894219
21
34.902420
0
LINE
8
0
10
46.894219
20
34.902420
11
46.485873
21
34.984783
0
LINE
8
0
10
46.485873
20
34.984783
11
46.077528
21
34.902420
0
LINE
8
0
10
46.077528
20
34.902420
11
45.743939
21
34.677772
0
LINE
8
0
10
45.743939
20
34.677772
11
45.518818
21
34.344503
0
LINE
8
0
10
45.518818
20
34.344503
11
45.435876
21
33.936275
0
LINE
8
0
10
45.435876
20
33.936275
11
45.518818
21
33.528047
0
LINE
8
0
10
45.518818
20
33.528047
11
45.743939
21
33.194777
0
LINE
8
0
10
45.743939
20
33.194777
11
46.077528
21
32.970130
0
LINE
8
0
10
46.077528
20
32.970130
11
46.485873
21
32.887767
0
LINE
8
0
10
46.485873
20
32.887767
11
46.894219
21
32.970130
0
LINE
8
0
10
46.894219
20
32.970130
11
47.227807
21
33.194777
0
LINE
8
0
10
47.227807
20
33.194777
11
47.452928
21
33.528047
0
LINE
8
0
10
47.452928
20
33.528047
11
47.535871
21
33.936275
0
LINE
8
0
10
47.535871
20
33.936275
11
47.535871
21
33.936275
0
LINE
8
0
10
31.535891
20
33.936275
11
31.452948
21
34.344503
0
LINE
8
0
10
31.452948
20
34.344503
11
31.227827
21
34.677772
0
LINE
8
0
10
31.227827
20
34.677772
11
30.894239
21
34.902420
0
LINE
8
0
10
30.894239
20
34.902420
11
30.485894
21
34.984783
0
LINE
8
0
10
30.485894
20
34.984783
11
30.077548
21
34.902420
0
LINE
8
0
10
30.077548
20
34.902420
11
29.743960
21
34.677772
0
LINE
8
0
10
29.743960
20
34.677772
11
29.518839
21
34.344503
0
LINE
8
0
10
29.518839
20
34.344503
11
29.435896
21
33.936275
0
LINE
8
0
10
29.435896
20
33.936275
11
29.518839
21
33.528047
0
LINE
8
0
10
29.518839
20
33.528047
11
29.743960
21
33.194777
0
LINE
8
0
10
29.743960
20
33.194777
11
30.077548
21
32.970130
0
LINE
8
0
10
30.077548
20
32.970130
11
30.485894
21
32.887767
0
LINE
8
0
10
30.485894
20
32.887767
11
30.894239
21
32.970130
0
LINE
8
0
10
30.894239
20
32.970130
11
31.227827
21
33.194777
0
LINE
8
0
10
31.227827
20
33.194777
11
31.452948
21
33.528047
0
LINE
8
0
10
31.452948
20
33.528047
11
31.535891
21
33.936275
0
LINE
8
0
10
31.535891
20
33.936275
11
31.535891
21
33.936275
0
LINE
8
0
10
47.535871
20
41.936286
11
47.452928
21
42.344514
0
LINE
8
0
10
47.452928
20
42.344514
11
47.227807
21
42.677783
0
LINE
8
0
10
47.227807
20
42.677783
11
46.894219
21
42.902431
0
LINE
8
0
10
46.894219
20
42.902431
11
46.485873
21
42.984794
0
LINE
8
0
10
46.485873
20
42.984794
11
46.077528
21
42.902431
0
LINE
8
0
10
46.077528
20
42.902431
11
45.743939
21
42.677783
0
LINE
8
0
10
45.743939
20
42.677783
11
45.518818
21
42.344514
0
LINE
8
0
10
45.518818
20
42.344514
11
45.435876
21
41.936286
0
LINE
8
0
10
45.435876
20
41.936286
11
45.518818
21
41.528058
0
LINE
8
0
10
45.518818
20
41.528058
11
45.743939
21
41.194788
0
LINE
8
0
10
45.743939
20
41.194788
11
46.077528
21
40.970141
0
LINE
8
0
10
46.077528
20
40.970141
11
46.485873
21
40.887778
0
LINE
8
0
10
46.485873
20
40.887778
11
46.894219
21
40.970141
0
LINE
8
0
10
46.894219
20
40.970141
11
47.227807
21
41.194788
0
LINE
8
0
10
47.227807
20
41.194788
11
47.452928
21
41.528058
0
LINE
8
0
10
47.452928
20
41.528058
11
47.535871
21
41.936286
0
LINE
8
0
10
47.535871
20
41.936286
11
47.535871
21
41.936286
0
LINE
8
0
10
35.485888
20
36.582025
11
35.485888
21
38.886279
0
LINE
8
0
10
35.485888
20
38.886279
11
41.485879
21
38.886279
0
LINE
8
0
10
41.485879
20
38.886279
11
41.485879
21
36.582025
0
LINE
8
0
10
41.485879
20
36.582025
11
42.235880
21
35.330019
0
LINE
8
0
10
42.235880
20
35.330019
11
42.485880
21
33.936275
0
LINE
8
0
10
42.485880
20
33.936275
11
42.235880
21
32.542531
0
LINE
8
0
10
42.235880
20
32.542531
11
41.485879
21
31.290524
0
LINE
8
0
10
41.485879
20
31.290524
11
41.485879
21
28.986297
0
LINE
8
0
10
41.485879
20
28.986297
11
35.485888
21
28.986297
0
LINE
8
0
10
35.485888
20
28.986297
11
35.485888
21
31.290524
0
LINE
8
0
10
35.485888
20
31.290524
11
34.735887
21
32.542531
0
LINE
8
0
10
34.735887
20
32.542531
11
34.485887
21
33.936275
0
LINE
8
0
10
34.485887
20
33.936275
11
34.735887
21
35.330019
0
LINE
8
0
10
34.735887
20
35.330019
11
35.485888
21
36.582025
0
LINE
8
0
10
35.485888
20
36.582025
11
35.485888
21
36.582025
0
LINE
8
0
10
31.535891
20
25.936290
11
31.452948
21
26.344518
0
LINE
8
0
10
31.452948
20
26.344518
11
31.227827
21
26.677788
0
LINE
8
0
10
31.227827
20
26.677788
11
30.894239
21
26.902435
0
LINE
8
0
10
30.894239
20
26.902435
11
30.485894
21
26.984798
0
LINE
8
0
10
30.485894
20
26.984798
11
30.077548
21
26.902435
0
LINE
8
0
10
30.077548
20
26.902435
11
29.743960
21
26.677788
0
LINE
8
0
10
29.743960
20
26.677788
11
29.518839
21
26.344518
0
LINE
8
0
10
29.518839
20
26.344518
11
29.435896
21
25.936290
0
LINE
8
0
10
29.435896
20
25.936290
11
29.518839
21
25.528062
0
LINE
8
0
10
29.518839
20
25.528062
11
29.743960
21
25.194793
0
LINE
8
0
10
29.743960
20
25.194793
11
30.077548
21
24.970145
0
LINE
8
0
10
30.077548
20
24.970145
11
30.485894
21
24.887782
0
LINE
8
0
10
30.485894
20
24.887782
11
30.894239
21
24.970145
0
LINE
8
0
10
30.894239
20
24.970145
11
31.227827
21
25.194793
0
LINE
8
0
10
31.227827
20
25.194793
11
31.452948
21
25.528062
0
LINE
8
0
10
31.452948
20
25.528062
11
31.535891
21
25.936290
0
LINE
8
0
10
31.535891
20
25.936290
11
31.535891
21
25.936290
0
LINE
8
0
10
31.535891
20
177.936099
11
31.452948
21
178.344327
0
LINE
8
0
10
31.452948
20
178.344327
11
31.227827
21
178.677596
0
LINE
8
0
10
31.227827
20
178.677596
11
30.894239
21
178.902244
0
LINE
8
0
10
30.894239
20
178.902244
11
30.485894
21
178.984607
0
LINE
8
0
10
30.485894
20
178.984607
11
30.077548
21
178.902244
0
LINE
8
0
10
30.077548
20
178.902244
11
29.743960
21
178.677596
0
LINE
8
0
10
29.743960
20
178.677596
11
29.518839
21
178.344327
0
LINE
8
0
10
29.518839
20
178.344327
11
29.435896
21
177.936099
0
LINE
8
0
10
29.435896
20
177.936099
11
29.518839
21
177.527871
0
LINE
8
0
10
29.518839
20
177.527871
11
29.743960
21
177.194602
0
LINE
8
0
10
29.743960
20
177.194602
11
30.077548
21
176.969954
0
LINE
8
0
10
30.077548
20
176.969954
11
30.485894
21
176.887591
0
LINE
8
0
10
30.485894
20
176.887591
11
30.894239
21
176.969954
0
LINE
8
0
10
30.894239
20
176.969954
11
31.227827
21
177.194602
0
LINE
8
0
10
31.227827
20
177.194602
11
31.452948
21
177.527871
0
LINE
8
0
10
31.452948
20
177.527871
11
31.535891
21
177.936099
0
LINE
8
0
10
31.535891
20
177.936099
11
31.535891
21
177.936099
0
LINE
8
0
10
37.278491
20
70.420522
11
37.157337
21
71.333732
0
LINE
8
0
10
37.157337
20
71.333732
11
36.809580
21
72.170520
0
LINE
8
0
10
36.809580
20
72.170520
11
36.258779
21
72.890080
0
LINE
8
0
10
36.258779
20
72.890080
11
35.528492
21
73.451607
0
LINE
8
0
10
35.528492
20
73.451607
11
34.677051
21
73.803290
0
LINE
8
0
10
34.677051
20
73.803290
11
33.778494
21
73.920518
0
LINE
8
0
10
33.778494
20
73.920518
11
32.879937
21
73.803290
0
LINE
8
0
10
32.879937
20
73.803290
11
32.028496
21
73.451607
0
LINE
8
0
10
32.028496
20
73.451607
11
31.298209
21
72.890080
0
LINE
8
0
10
31.298209
20
72.890080
11
30.747408
21
72.170520
0
LINE
8
0
10
30.747408
20
72.170520
11
30.399652
21
71.333732
0
LINE
8
0
10
30.399652
20
71.333732
11
30.278498
21
70.420522
0
LINE
8
0
10
30.278498
20
70.420522
11
30.399652
21
69.507311
0
LINE
8
0
10
30.399652
20
69.507311
11
30.747408
21
68.670523
0
LINE
8
0
10
30.747408
20
68.670523
11
31.298209
21
67.950964
0
LINE
8
0
10
31.298209
20
67.950964
11
32.028496
21
67.389436
0
LINE
8
0
10
32.028496
20
67.389436
11
32.879937
21
67.037753
0
LINE
8
0
10
32.879937
20
67.037753
11
33.778494
21
66.920525
0
LINE
8
0
10
33.778494
20
66.920525
11
34.677051
21
67.037753
0
LINE
8
0
10
34.677051
20
67.037753
11
35.528492
21
67.389436
0
LINE
8
0
10
35.528492
20
67.389436
11
36.258779
21
67.950964
0
LINE
8
0
10
36.258779
20
67.950964
11
36.809580
21
68.670523
0
LINE
8
0
10
36.809580
20
68.670523
11
37.157337
21
69.507311
0
LINE
8
0
10
37.157337
20
69.507311
11
37.278491
21
70.420522
0
LINE
8
0
10
37.278491
20
70.420522
11
37.278491
21
70.420522
0
LINE
8
0
10
39.535881
20
169.936109
11
39.452938
21
170.344337
0
LINE
8
0
10
39.452938
20
170.344337
11
39.227817
21
170.677607
0
LINE
8
0
10
39.227817
20
170.677607
11
38.894229
21
170.902254
0
LINE
8
0
10
38.894229
20
170.902254
11
38.485883
21
170.984617
0
LINE
8
0
10
38.485883
20
170.984617
11
38.077538
21
170.902254
0
LINE
8
0
10
38.077538
20
170.902254
11
37.743949
21
170.677607
0
LINE
8
0
10
37.743949
20
170.677607
11
37.518829
21
170.344337
0
LINE
8
0
10
37.518829
20
170.344337
11
37.435886
21
169.936109
0
LINE
8
0
10
37.435886
20
169.936109
11
37.518829
21
169.527881
0
LINE
8
0
10
37.518829
20
169.527881
11
37.743949
21
169.194612
0
LINE
8
0
10
37.743949
20
169.194612
11
38.077538
21
168.969964
0
LINE
8
0
10
38.077538
20
168.969964
11
38.485883
21
168.887601
0
LINE
8
0
10
38.485883
20
168.887601
11
38.894229
21
168.969964
0
LINE
8
0
10
38.894229
20
168.969964
11
39.227817
21
169.194612
0
LINE
8
0
10
39.227817
20
169.194612
11
39.452938
21
169.527881
0
LINE
8
0
10
39.452938
20
169.527881
11
39.535881
21
169.936109
0
LINE
8
0
10
39.535881
20
169.936109
11
39.535881
21
169.936109
0
LINE
8
0
10
37.278491
20
120.420464
11
37.157337
21
121.333675
0
LINE
8
0
10
37.157337
20
121.333675
11
36.809580
21
122.170463
0
LINE
8
0
10
36.809580
20
122.170463
11
36.258779
21
122.890022
0
LINE
8
0
10
36.258779
20
122.890022
11
35.528492
21
123.451550
0
LINE
8
0
10
35.528492
20
123.451550
11
34.677051
21
123.803233
0
LINE
8
0
10
34.677051
20
123.803233
11
33.778494
21
123.920461
0
LINE
8
0
10
33.778494
20
123.920461
11
32.879937
21
123.803233
0
LINE
8
0
10
32.879937
20
123.803233
11
32.028496
21
123.451550
0
LINE
8
0
10
32.028496
20
123.451550
11
31.298209
21
122.890022
0
LINE
8
0
10
31.298209
20
122.890022
11
30.747408
21
122.170463
0
LINE
8
0
10
30.747408
20
122.170463
11
30.399652
21
121.333675
0
LINE
8
0
10
30.399652
20
121.333675
11
30.278498
21
120.420464
0
LINE
8
0
10
30.278498
20
120.420464
11
30.399652
21
119.507254
0
LINE
8
0
10
30.399652
20
119.507254
11
30.747408
21
118.670466
0
LINE
8
0
10
30.747408
20
118.670466
11
31.298209
21
117.950906
0
LINE
8
0
10
31.298209
20
117.950906
11
32.028496
21
117.389379
0
LINE
8
0
10
32.028496
20
117.389379
11
32.879937
21
117.037696
0
LINE
8
0
10
32.879937
20
117.037696
11
33.778494
21
116.920468
0
LINE
8
0
10
33.778494
20
116.920468
11
34.677051
21
117.037696
0
LINE
8
0
10
34.677051
20
117.037696
11
35.528492
21
117.389379
0
LINE
8
0
10
35.528492
20
117.389379
11
36.258779
21
117.950906
0
LINE
8
0
10
36.258779
20
117.950906
11
36.809580
21
118.670466
0
LINE
8
0
10
36.809580
20
118.670466
11
37.157337
21
119.507254
0
LINE
8
0
10
37.157337
20
119.507254
11
37.278491
21
120.420464
0
LINE
8
0
10
37.278491
20
120.420464
11
37.278491
21
120.420464
0
LINE
8
0
10
31.535891
20
185.936086
11
31.452948
21
186.344315
0
LINE
8
0
10
31.452948
20
186.344315
11
31.227827
21
186.677584
0
LINE
8
0
10
31.227827
20
186.677584
11
30.894239
21
186.902231
0
LINE
8
0
10
30.894239
20
186.902231
11
30.485894
21
186.984594
0
LINE
8
0
10
30.485894
20
186.984594
11
30.077548
21
186.902231
0
LINE
8
0
10
30.077548
20
186.902231
11
29.743960
21
186.677584
0
LINE
8
0
10
29.743960
20
186.677584
11
29.518839
21
186.344315
0
LINE
8
0
10
29.518839
20
186.344315
11
29.435896
21
185.936086
0
LINE
8
0
10
29.435896
20
185.936086
11
29.518839
21
185.527858
0
LINE
8
0
10
29.518839
20
185.527858
11
29.743960
21
185.194589
0
LINE
8
0
10
29.743960
20
185.194589
11
30.077548
21
184.969942
0
LINE
8
0
10
30.077548
20
184.969942
11
30.485894
21
184.887579
0
LINE
8
0
10
30.485894
20
184.887579
11
30.894239
21
184.969942
0
LINE
8
0
10
30.894239
20
184.969942
11
31.227827
21
185.194589
0
LINE
8
0
10
31.227827
20
185.194589
11
31.452948
21
185.527858
0
LINE
8
0
10
31.452948
20
185.527858
11
31.535891
21
185.936086
0
LINE
8
0
10
31.535891
20
185.936086
11
31.535891
21
185.936086
0
LINE
8
0
10
31.535891
20
169.936109
11
31.452948
21
170.344337
0
LINE
8
0
10
31.452948
20
170.344337
11
31.227827
21
170.677607
0
LINE
8
0
10
31.227827
20
170.677607
11
30.894239
21
170.902254
0
LINE
8
0
10
30.894239
20
170.902254
11
30.485894
21
170.984617
0
LINE
8
0
10
30.485894
20
170.984617
11
30.077548
21
170.902254
0
LINE
8
0
10
30.077548
20
170.902254
11
29.743960
21
170.677607
0
LINE
8
0
10
29.743960
20
170.677607
11
29.518839
21
170.344337
0
LINE
8
0
10
29.518839
20
170.344337
11
29.435896
21
169.936109
0
LINE
8
0
10
29.435896
20
169.936109
11
29.518839
21
169.527881
0
LINE
8
0
10
29.518839
20
169.527881
11
29.743960
21
169.194612
0
LINE
8
0
10
29.743960
20
169.194612
11
30.077548
21
168.969964
0
LINE
8
0
10
30.077548
20
168.969964
11
30.485894
21
168.887601
0
LINE
8
0
10
30.485894
20
168.887601
11
30.894239
21
168.969964
0
LINE
8
0
10
30.894239
20
168.969964
11
31.227827
21
169.194612
0
LINE
8
0
10
31.227827
20
169.194612
11
31.452948
21
169.527881
0
LINE
8
0
10
31.452948
20
169.527881
11
31.535891
21
169.936109
0
LINE
8
0
10
31.535891
20
169.936109
11
31.535891
21
169.936109
0
LINE
8
0
10
47.535871
20
169.936109
11
47.452928
21
170.344337
0
LINE
8
0
10
47.452928
20
170.344337
11
47.227807
21
170.677607
0
LINE
8
0
10
47.227807
20
170.677607
11
46.894219
21
170.902254
0
LINE
8
0
10
46.894219
20
170.902254
11
46.485873
21
170.984617
0
LINE
8
0
10
46.485873
20
170.984617
11
46.077528
21
170.902254
0
LINE
8
0
10
46.077528
20
170.902254
11
45.743939
21
170.677607
0
LINE
8
0
10
45.743939
20
170.677607
11
45.518818
21
170.344337
0
LINE
8
0
10
45.518818
20
170.344337
11
45.435876
21
169.936109
0
LINE
8
0
10
45.435876
20
169.936109
11
45.518818
21
169.527881
0
LINE
8
0
10
45.518818
20
169.527881
11
45.743939
21
169.194612
0
LINE
8
0
10
45.743939
20
169.194612
11
46.077528
21
168.969964
0
LINE
8
0
10
46.077528
20
168.969964
11
46.485873
21
168.887601
0
LINE
8
0
10
46.485873
20
168.887601
11
46.894219
21
168.969964
0
LINE
8
0
10
46.894219
20
168.969964
11
47.227807
21
169.194612
0
LINE
8
0
10
47.227807
20
169.194612
11
47.452928
21
169.527881
0
LINE
8
0
10
47.452928
20
169.527881
11
47.535871
21
169.936109
0
LINE
8
0
10
47.535871
20
169.936109
11
47.535871
21
169.936109
0
LINE
8
0
10
47.535871
20
177.936099
11
47.452928
21
178.344327
0
LINE
8
0
10
47.452928
20
178.344327
11
47.227807
21
178.677596
0
LINE
8
0
10
47.227807
20
178.677596
11
46.894219
21
178.902244
0
LINE
8
0
10
46.894219
20
178.902244
11
46.485873
21
178.984607
0
LINE
8
0
10
46.485873
20
178.984607
11
46.077528
21
178.902244
0
LINE
8
0
10
46.077528
20
178.902244
11
45.743939
21
178.677596
0
LINE
8
0
10
45.743939
20
178.677596
11
45.518818
21
178.344327
0
LINE
8
0
10
45.518818
20
178.344327
11
45.435876
21
177.936099
0
LINE
8
0
10
45.435876
20
177.936099
11
45.518818
21
177.527871
0
LINE
8
0
10
45.518818
20
177.527871
11
45.743939
21
177.194602
0
LINE
8
0
10
45.743939
20
177.194602
11
46.077528
21
176.969954
0
LINE
8
0
10
46.077528
20
176.969954
11
46.485873
21
176.887591
0
LINE
8
0
10
46.485873
20
176.887591
11
46.894219
21
176.969954
0
LINE
8
0
10
46.894219
20
176.969954
11
47.227807
21
177.194602
0
LINE
8
0
10
47.227807
20
177.194602
11
47.452928
21
177.527871
0
LINE
8
0
10
47.452928
20
177.527871
11
47.535871
21
177.936099
0
LINE
8
0
10
47.535871
20
177.936099
11
47.535871
21
177.936099
0
LINE
8
0
10
39.535881
20
185.936086
11
39.452938
21
186.344315
0
LINE
8
0
10
39.452938
20
186.344315
11
39.227817
21
186.677584
0
LINE
8
0
10
39.227817
20
186.677584
11
38.894229
21
186.902231
0
LINE
8
0
10
38.894229
20
186.902231
11
38.485883
21
186.984594
0
LINE
8
0
10
38.485883
20
186.984594
11
38.077538
21
186.902231
0
LINE
8
0
10
38.077538
20
186.902231
11
37.743949
21
186.677584
0
LINE
8
0
10
37.743949
20
186.677584
11
37.518829
21
186.344315
0
LINE
8
0
10
37.518829
20
186.344315
11
37.435886
21
185.936086
0
LINE
8
0
10
37.435886
20
185.936086
11
37.518829
21
185.527858
0
LINE
8
0
10
37.518829
20
185.527858
11
37.743949
21
185.194589
0
LINE
8
0
10
37.743949
20
185.194589
11
38.077538
21
184.969942
0
LINE
8
0
10
38.077538
20
184.969942
11
38.485883
21
184.887579
0
LINE
8
0
10
38.485883
20
184.887579
11
38.894229
21
184.969942
0
LINE
8
0
10
38.894229
20
184.969942
11
39.227817
21
185.194589
0
LINE
8
0
10
39.227817
20
185.194589
11
39.452938
21
185.527858
0
LINE
8
0
10
39.452938
20
185.527858
11
39.535881
21
185.936086
0
LINE
8
0
10
39.535881
20
185.936086
11
39.535881
21
185.936086
0
LINE
8
0
10
49.831528
20
70.420522
11
49.710374
21
71.333732
0
LINE
8
0
10
49.710374
20
71.333732
11
49.362617
21
72.170520
0
LINE
8
0
10
49.362617
20
72.170520
11
48.811816
21
72.890080
0
LINE
8
0
10
48.811816
20
72.890080
11
48.081530
21
73.451607
0
LINE
8
0
10
48.081530
20
73.451607
11
47.230089
21
73.803290
0
LINE
8
0
10
47.230089
20
73.803290
11
46.331531
21
73.920518
0
LINE
8
0
10
46.331531
20
73.920518
11
45.432974
21
73.803290
0
LINE
8
0
10
45.432974
20
73.803290
11
44.581533
21
73.451607
0
LINE
8
0
10
44.581533
20
73.451607
11
43.851246
21
72.890080
0
LINE
8
0
10
43.851246
20
72.890080
11
43.300445
21
72.170520
0
LINE
8
0
10
43.300445
20
72.170520
11
42.952689
21
71.333732
0
LINE
8
0
10
42.952689
20
71.333732
11
42.831535
21
70.420522
0
LINE
8
0
10
42.831535
20
70.420522
11
42.952689
21
69.507311
0
LINE
8
0
10
42.952689
20
69.507311
11
43.300445
21
68.670523
0
LINE
8
0
10
43.300445
20
68.670523
11
43.851246
21
67.950964
0
LINE
8
0
10
43.851246
20
67.950964
11
44.581533
21
67.389436
0
LINE
8
0
10
44.581533
20
67.389436
11
45.432974
21
67.037753
0
LINE
8
0
10
45.432974
20
67.037753
11
46.331531
21
66.920525
0
LINE
8
0
10
46.331531
20
66.920525
11
47.230089
21
67.037753
0
LINE
8
0
10
47.230089
20
67.037753
11
48.081530
21
67.389436
0
LINE
8
0
10
48.081530
20
67.389436
11
48.811816
21
67.950964
0
LINE
8
0
10
48.811816
20
67.950964
11
49.362617
21
68.670523
0
LINE
8
0
10
49.362617
20
68.670523
11
49.710374
21
69.507311
0
LINE
8
0
10
49.710374
20
69.507311
11
49.831528
21
70.420522
0
LINE
8
0
10
49.831528
20
70.420522
11
49.831528
21
70.420522
0
LINE
8
0
10
49.831528
20
120.420464
11
49.710374
21
121.333675
0
LINE
8
0
10
49.710374
20
121.333675
11
49.362617
21
122.170463
0
LINE
8
0
10
49.362617
20
122.170463
11
48.811816
21
122.890022
0
LINE
8
0
10
48.811816
20
122.890022
11
48.081530
21
123.451550
0
LINE
8
0
10
48.081530
20
123.451550
11
47.230089
21
123.803233
0
LINE
8
0
10
47.230089
20
123.803233
11
46.331531
21
123.920461
0
LINE
8
0
10
46.331531
20
123.920461
11
45.432974
21
123.803233
0
LINE
8
0
10
45.432974
20
123.803233
11
44.581533
21
123.451550
0
LINE
8
0
10
44.581533
20
123.451550
11
43.851246
21
122.890022
0
LINE
8
0
10
43.851246
20
122.890022
11
43.300445
21
122.170463
0
LINE
8
0
10
43.300445
20
122.170463
11
42.952689
21
121.333675
0
LINE
8
0
10
42.952689
20
121.333675
11
42.831535
21
120.420464
0
LINE
8
0
10
42.831535
20
120.420464
11
42.952689
21
119.507254
0
LINE
8
0
10
42.952689
20
119.507254
11
43.300445
21
118.670466
0
LINE
8
0
10
43.300445
20
118.670466
11
43.851246
21
117.950906
0
LINE
8
0
10
43.851246
20
117.950906
11
44.581533
21
117.389379
0
LINE
8
0
10
44.581533
20
117.389379
11
45.432974
21
117.037696
0
LINE
8
0
10
45.432974
20
117.037696
11
46.331531
21
116.920468
0
LINE
8
0
10
46.331531
20
116.920468
11
47.230089
21
117.037696
0
LINE
8
0
10
47.230089
20
117.037696
11
48.081530
21
117.389379
0
LINE
8
0
10
48.081530
20
117.389379
11
48.811816
21
117.950906
0
LINE
8
0
10
48.811816
20
117.950906
11
49.362617
21
118.670466
0
LINE
8
0
10
49.362617
20
118.670466
11
49.710374
21
119.507254
0
LINE
8
0
10
49.710374
20
119.507254
11
49.831528
21
120.420464
0
LINE
8
0
10
49.831528
20
120.420464
11
49.831528
21
120.420464
0
LINE
8
0
10
41.485879
20
175.290351
11
42.235877
21
176.542356
0
LINE
8
0
10
42.235877
20
176.542356
11
42.485876
21
177.936098
0
LINE
8
0
10
42.485876
20
177.936098
11
42.235877
21
179.329839
0
LINE
8
0
10
42.235877
20
179.329839
11
41.485879
21
180.581844
0
LINE
8
0
10
41.485879
20
180.581844
11
41.485879
21
182.886090
0
LINE
8
0
10
41.485879
20
182.886090
11
35.485888
21
182.886090
0
LINE
8
0
10
35.485888
20
182.886090
11
35.485888
21
180.581844
0
LINE
8
0
10
35.485888
20
180.581844
11
34.735890
21
179.329839
0
LINE
8
0
10
34.735890
20
179.329839
11
34.485890
21
177.936098
0
LINE
8
0
10
34.485890
20
177.936098
11
34.735890
21
176.542356
0
LINE
8
0
10
34.735890
20
176.542356
11
35.485888
21
175.290351
0
LINE
8
0
10
35.485888
20
175.290351
11
35.485888
21
172.986106
0
LINE
8
0
10
35.485888
20
172.986106
11
41.485879
21
172.986106
0
LINE
8
0
10
41.485879
20
172.986106
11
41.485879
21
175.290351
0
LINE
8
0
10
47.535871
20
185.936086
11
47.452928
21
186.344315
0
LINE
8
0
10
47.452928
20
186.344315
11
47.227807
21
186.677584
0
LINE
8
0
10
47.227807
20
186.677584
11
46.894219
21
186.902231
0
LINE
8
0
10
46.894219
20
186.902231
11
46.485873
21
186.984594
0
LINE
8
0
10
46.485873
20
186.984594
11
46.077528
21
186.902231
0
LINE
8
0
10
46.077528
20
186.902231
11
45.743939
21
186.677584
0
LINE
8
0
10
45.743939
20
186.677584
11
45.518818
21
186.344315
0
LINE
8
0
10
45.518818
20
186.344315
11
45.435876
21
185.936086
0
LINE
8
0
10
45.435876
20
185.936086
11
45.518818
21
185.527858
0
LINE
8
0
10
45.518818
20
185.527858
11
45.743939
21
185.194589
0
LINE
8
0
10
45.743939
20
185.194589
11
46.077528
21
184.969942
0
LINE
8
0
10
46.077528
20
184.969942
11
46.485873
21
184.887579
0
LINE
8
0
10
46.485873
20
184.887579
11
46.894219
21
184.969942
0
LINE
8
0
10
46.894219
20
184.969942
11
47.227807
21
185.194589
0
LINE
8
0
10
47.227807
20
185.194589
11
47.452928
21
185.527858
0
LINE
8
0
10
47.452928
20
185.527858
11
47.535871
21
185.936086
0
LINE
8
0
10
47.535871
20
185.936086
11
47.535871
21
185.936086
0
LINE
8
0
10
5.985924
20
41.058823
11
5.985924
21
25.936290
0
LINE
8
0
10
5.985924
20
25.936290
11
6.089183
21
23.891410
0
LINE
8
0
10
6.089183
20
23.891410
11
6.392254
21
21.905600
0
LINE
8
0
10
6.392254
20
21.905600
11
6.885086
21
19.988912
0
LINE
8
0
10
6.885086
20
19.988912
11
7.557625
21
18.151401
0
LINE
8
0
10
7.557625
20
18.151401
11
8.399817
21
16.403120
0
LINE
8
0
10
8.399817
20
16.403120
11
9.401610
21
14.754120
0
LINE
8
0
10
9.401610
20
14.754120
11
10.552951
21
13.214456
0
LINE
8
0
10
10.552951
20
13.214456
11
11.843786
21
11.794181
0
LINE
8
0
10
11.843786
20
11.794181
11
13.264063
21
10.503347
0
LINE
8
0
10
13.264063
20
10.503347
11
14.803727
21
9.352007
0
LINE
8
0
10
14.803727
20
9.352007
11
16.452728
21
8.350215
0
LINE
8
0
10
16.452728
20
8.350215
11
18.201010
21
7.508024
0
LINE
8
0
10
18.201010
20
7.508024
11
20.038522
21
6.835487
0
LINE
8
0
10
20.038522
20
6.835487
11
21.955209
21
6.342657
0
LINE
8
0
10
21.955209
20
6.342657
11
23.941020
21
6.039586
0
LINE
8
0
10
23.941020
20
6.039586
11
25.985900
21
5.936329
0
LINE
8
0
10
25.985900
20
5.936329
11
50.985866
21
5.936329
0
LINE
8
0
10
50.985866
20
5.936329
11
53.030747
21
6.039586
0
LINE
8
0
10
53.030747
20
6.039586
11
55.016557
21
6.342657
0
LINE
8
0
10
55.016557
20
6.342657
11
56.933245
21
6.835487
0
LINE
8
0
10
56.933245
20
6.835487
11
58.770757
21
7.508024
0
LINE
8
0
10
58.770757
20
7.508024
11
60.519039
21
8.350215
0
LINE
8
0
10
60.519039
20
8.350215
11
62.168039
21
9.352007
0
LINE
8
0
10
62.168039
20
9.352007
11
63.707704
21
10.503346
0
LINE
8
0
10
63.707704
20
10.503346
11
65.127981
21
11.794180
0
LINE
8
0
10
65.127981
20
11.794180
11
66.418816
21
13.214456
0
LINE
8
0
10
66.418816
20
13.214456
11
67.570157
21
14.754120
0
LINE
8
0
10
67.570157
20
14.754120
11
68.571950
21
16.403119
0
LINE
8
0
10
68.571950
20
16.403119
11
69.414142
21
18.151401
0
LINE
8
0
10
69.414142
20
18.151401
11
70.086681
21
19.988912
0
LINE
8
0
10
70.086681
20
19.988912
11
70.579513
21
21.905600
0
LINE
8
0
10
70.579513
20
21.905600
11
70.882585
21
23.891410
0
LINE
8
0
10
70.882585
20
23.891410
11
70.985844
21
25.936290
0
LINE
8
0
10
70.985844
20
25.936290
11
71.083709
21
27.913043
0
LINE
8
0
10
71.083709
20
27.913043
11
71.373686
21
29.856314
0
LINE
8
0
10
71.373686
20
29.856314
11
71.850343
21
31.752989
0
LINE
8
0
10
71.850343
20
31.752989
11
72.508247
21
33.589953
0
LINE
8
0
10
72.508247
20
33.589953
11
73.341967
21
35.354093
0
LINE
8
0
10
73.341967
20
35.354093
11
74.346070
21
37.032293
0
LINE
8
0
10
74.346070
20
37.032293
11
75.515123
21
38.611439
0
LINE
8
0
10
75.515123
20
38.611439
11
76.843696
21
40.078416
0
LINE
8
0
10
76.843696
20
40.078416
11
78.310673
21
41.406990
0
LINE
8
0
10
78.310673
20
41.406990
11
79.889818
21
42.576045
0
LINE
8
0
10
79.889818
20
42.576045
11
81.568017
21
43.580148
0
LINE
8
0
10
81.568017
20
43.580148
11
83.332156
21
44.413869
0
LINE
8
0
10
83.332156
20
44.413869
11
85.169120
21
45.071775
0
LINE
8
0
10
85.169120
20
45.071775
11
87.065795
21
45.548433
0
LINE
8
0
10
87.065795
20
45.548433
11
89.009065
21
45.838411
0
LINE
8
0
10
89.009065
20
45.838411
11
90.985818
21
45.936278
0
LINE
8
0
10
90.985818
20
45.936278
11
160.985730
21
45.936278
0
LINE
8
0
10
160.985730
20
45.936278
11
163.030610
21
46.039536
0
LINE
8
0
10
163.030610
20
46.039536
11
165.016420
21
46.342606
0
LINE
8
0
10
165.016420
20
46.342606
11
166.933108
21
46.835436
0
LINE
8
0
10
166.933108
20
46.835436
11
168.770619
21
47.507974
0
LINE
8
0
10
168.770619
20
47.507974
11
170.518901
21
48.350165
0
LINE
8
0
10
170.518901
20
48.350165
11
172.167901
21
49.351956
0
LINE
8
0
10
172.167901
20
49.351956
11
173.707566
21
50.503296
0
LINE
8
0
10
173.707566
20
50.503296
11
175.127842
21
51.794129
0
LINE
8
0
10
175.127842
20
51.794129
11
176.418677
21
53.214405
0
LINE
8
0
10
176.418677
20
53.214405
11
177.570017
21
54.754068
0
LINE
8
0
10
177.570017
20
54.754068
11
178.571810
21
56.403068
0
LINE
8
0
10
178.571810
20
56.403068
11
179.414003
21
58.151349
0
LINE
8
0
10
179.414003
20
58.151349
11
180.086541
21
59.988860
0
LINE
8
0
10
180.086541
20
59.988860
11
180.579373
21
61.905547
0
LINE
8
0
10
180.579373
20
61.905547
11
180.882445
21
63.891357
0
LINE
8
0
10
180.882445
20
63.891357
11
180.985705
21
65.936237
0
LINE
8
0
10
180.985705
20
65.936237
11
180.985705
21
140.936146
0
LINE
8
0
10
180.985705
20
140.936146
11
180.863371
21
143.407085
0
LINE
8
0
10
180.863371
20
143.407085
11
180.500899
21
145.836173
0
LINE
8
0
10
180.500899
20
145.836173
11
179.905077
21
148.207015
0
LINE
8
0
10
179.905077
20
148.207015
11
179.082695
21
150.503220
0
LINE
8
0
10
179.082695
20
150.503220
11
178.040545
21
152.708393
0
LINE
8
0
10
178.040545
20
152.708393
11
176.785416
21
154.806141
0
LINE
8
0
10
176.785416
20
154.806141
11
175.324099
21
156.780072
0
LINE
8
0
10
175.324099
20
156.780072
11
173.663383
21
158.613793
0
LINE
8
0
10
173.663383
20
158.613793
11
171.829662
21
160.274509
0
LINE
8
0
10
171.829662
20
160.274509
11
169.855731
21
161.735826
0
LINE
8
0
10
169.855731
20
161.735826
11
167.757983
21
162.990955
0
LINE
8
0
10
167.757983
20
162.990955
11
165.552810
21
164.033105
0
LINE
8
0
10
165.552810
20
164.033105
11
163.256605
21
164.855486
0
LINE
8
0
10
163.256605
20
164.855486
11
160.885763
21
165.451308
0
LINE
8
0
10
160.885763
20
165.451308
11
158.456676
21
165.813781
0
LINE
8
0
10
158.456676
20
165.813781
11
155.985736
21
165.936114
0
LINE
8
0
10
155.985736
20
165.936114
11
90.985818
21
165.936114
0
LINE
8
0
10
90.985818
20
165.936114
11
88.940937
21
166.039372
0
LINE
8
0
10
88.940937
20
166.039372
11
86.955126
21
166.342443
0
LINE
8
0
10
86.955126
20
166.342443
11
85.038438
21
166.835274
0
LINE
8
0
10
85.038438
20
166.835274
11
83.200926
21
167.507811
0
LINE
8
0
10
83.200926
20
167.507811
11
81.452643
21
168.350003
0
LINE
8
0
10
81.452643
20
168.350003
11
79.803643
21
169.351795
0
LINE
8
0
10
79.803643
20
169.351795
11
78.263978
21
170.503136
0
LINE
8
0
10
78.263978
20
170.503136
11
76.843701
21
171.793970
0
LINE
8
0
10
76.843701
20
171.793970
11
75.552866
21
173.214247
0
LINE
8
0
10
75.552866
20
173.214247
11
74.401526
21
174.753912
0
LINE
8
0
10
74.401526
20
174.753912
11
73.399733
21
176.402912
0
LINE
8
0
10
73.399733
20
176.402912
11
72.557541
21
178.151195
0
LINE
8
0
10
72.557541
20
178.151195
11
71.885003
21
179.988706
0
LINE
8
0
10
71.885003
20
179.988706
11
71.392172
21
181.905394
0
LINE
8
0
10
71.392172
20
181.905394
11
71.089101
21
183.891205
0
LINE
8
0
10
71.089101
20
183.891205
11
70.985844
21
185.936086
0
LINE
8
0
10
70.985844
20
185.936086
11
70.887977
21
187.912838
0
LINE
8
0
10
70.887977
20
187.912838
11
70.597999
21
189.856108
0
LINE
8
0
10
70.597999
20
189.856108
11
70.121341
21
191.752782
0
LINE
8
0
10
70.121341
20
191.752782
11
69.463436
21
193.589746
0
LINE
8
0
10
69.463436
20
193.589746
11
68.629715
21
195.353884
0
LINE
8
0
10
68.629715
20
195.353884
11
67.625612
21
197.032083
0
LINE
8
0
10
67.625612
20
197.032083
11
66.456558
21
198.611228
0
LINE
8
0
10
66.456558
20
198.611228
11
65.127986
21
200.078205
0
LINE
8
0
10
65.127986
20
200.078205
11
63.661009
21
201.406777
0
LINE
8
0
10
63.661009
20
201.406777
11
62.081864
21
202.575831
0
LINE
8
0
10
62.081864
20
202.575831
11
60.403664
21
203.579934
0
LINE
8
0
10
60.403664
20
203.579934
11
58.639526
21
204.413654
0
LINE
8
0
10
58.639526
20
204.413654
11
56.802563
21
205.071559
0
LINE
8
0
10
56.802563
20
205.071559
11
54.905889
21
205.548216
0
LINE
8
0
10
54.905889
20
205.548216
11
52.962618
21
205.838194
0
LINE
8
0
10
52.962618
20
205.838194
11
50.985866
21
205.936061
0
LINE
8
0
10
50.985866
20
205.936061
11
25.985900
21
205.936061
0
LINE
8
0
10
25.985900
20
205.936061
11
24.009148
21
205.838194
0
LINE
8
0
10
24.009148
20
205.838194
11
22.065878
21
205.548216
0
LINE
8
0
10
22.065878
20
205.548216
11
20.169204
21
205.071559
0
LINE
8
0
10
20.169204
20
205.071559
11
18.332241
21
204.413654
0
LINE
8
0
10
18.332241
20
204.413654
11
16.568102
21
203.579934
0
LINE
8
0
10
16.568102
20
203.579934
11
14.889903
21
202.575831
0
LINE
8
0
10
14.889903
20
202.575831
11
13.310758
21
201.406777
0
LINE
8
0
10
13.310758
20
201.406777
11
11.843781
21
200.078204
0
LINE
8
0
10
11.843781
20
200.078204
11
10.515209
21
198.611228
0
LINE
8
0
10
10.515209
20
198.611228
11
9.346155
21
197.032083
0
LINE
8
0
10
9.346155
20
197.032083
11
8.342052
21
195.353884
0
LINE
8
0
10
8.342052
20
195.353884
11
7.508331
21
193.589746
0
LINE
8
0
10
7.508331
20
193.589746
11
6.850426
21
191.752782
0
LINE
8
0
10
6.850426
20
191.752782
11
6.373769
21
189.856108
0
LINE
8
0
10
6.373769
20
189.856108
11
6.083790
21
187.912838
0
LINE
8
0
10
6.083790
20
187.912838
11
5.985924
21
185.936086
0
LINE
8
0
10
5.985924
20
185.936086
11
5.985924
21
156.766033
0
LINE
8
0
10
5.985924
20
156.766033
11
7.962676
21
156.668166
0
LINE
8
0
10
7.962676
20
156.668166
11
9.905946
21
156.378188
0
LINE
8
0
10
9.905946
20
156.378188
11
11.802620
21
155.901531
0
LINE
8
0
10
11.802620
20
155.901531
11
13.639583
21
155.243626
0
LINE
8
0
10
13.639583
20
155.243626
11
15.403722
21
154.409906
0
LINE
8
0
10
15.403722
20
154.409906
11
17.081921
21
153.405803
0
LINE
8
0
10
17.081921
20
153.405803
11
18.661066
21
152.236749
0
LINE
8
0
10
18.661066
20
152.236749
11
20.128042
21
150.908176
0
LINE
8
0
10
20.128042
20
150.908176
11
21.456615
21
149.441200
0
LINE
8
0
10
21.456615
20
149.441200
11
22.625669
21
147.862055
0
LINE
8
0
10
22.625669
20
147.862055
11
23.629772
21
146.183856
0
LINE
8
0
10
23.629772
20
146.183856
11
24.463492
21
144.419717
0
LINE
8
0
10
24.463492
20
144.419717
11
25.121397
21
142.582754
0
LINE
8
0
10
25.121397
20
142.582754
11
25.598055
21
140.686080
0
LINE
8
0
10
25.598055
20
140.686080
11
25.888033
21
138.742810
0
LINE
8
0
10
25.888033
20
138.742810
11
25.985900
21
136.766058
0
LINE
8
0
10
25.985900
20
136.766058
11
25.985900
21
61.058784
0
LINE
8
0
10
25.985900
20
61.058784
11
25.882641
21
59.013904
0
LINE
8
0
10
25.882641
20
59.013904
11
25.579569
21
57.028093
0
LINE
8
0
10
25.579569
20
57.028093
11
25.086737
21
55.111406
0
LINE
8
0
10
25.086737
20
55.111406
11
24.414199
21
53.273895
0
LINE
8
0
10
24.414199
20
53.273895
11
23.572006
21
51.525613
0
LINE
8
0
10
23.572006
20
51.525613
11
22.570213
21
49.876614
0
LINE
8
0
10
22.570213
20
49.876614
11
21.418873
21
48.336950
0
LINE
8
0
10
21.418873
20
48.336950
11
20.128038
21
46.916674
0
LINE
8
0
10
20.128038
20
46.916674
11
18.707761
21
45.625840
0
LINE
8
0
10
18.707761
20
45.625840
11
17.168096
21
44.474501
0
LINE
8
0
10
17.168096
20
44.474501
11
15.519096
21
43.472709
0
LINE
8
0
10
15.519096
20
43.472709
11
13.770814
21
42.630518
0
LINE
8
0
10
13.770814
20
42.630518
11
11.933302
21
41.957981
0
LINE
8
0
10
11.933302
20
41.957981
11
10.016615
21
41.465150
0
LINE
8
0
10
10.016615
20
41.465150
11
8.030804
21
41.162080
0
LINE
8
0
10
8.030804
20
41.162080
11
5.985924
21
41.058823
0
LINE
8
0
10
5.985924
20
41.058823
11
5.985924
21
41.058823
0
LINE
8
0
10
155.702238
20
115.961156
11
145.303861
21
115.961156
0
LINE
8
0
10
145.303861
20
115.961156
11
145.303861
21
113.907992
0
LINE
8
0
10
145.303861
20
113.907992
11
142.702481
21
113.907992
0
LINE
8
0
10
142.702481
20
113.907992
11
142.702481
21
119.342527
0
LINE
8
0
10
142.702481
20
119.342527
11
155.702238
21
119.342527
0
LINE
8
0
10
155.702238
20
119.342527
11
155.702238
21
115.961156
0
LINE
8
0
10
155.702238
20
109.706414
11
142.702481
21
109.706414
0
LINE
8
0
10
142.702481
20
109.706414
11
142.702481
21
113.087785
0
LINE
8
0
10
142.702481
20
113.087785
11
155.702238
21
113.087785
0
LINE
8
0
10
155.702238
20
113.087785
11
155.702238
21
109.706414
0
LINE
8
0
10
149.150104
20
104.472962
11
146.909880
21
104.472962
0
LINE
8
0
10
146.909880
20
104.472962
11
146.909880
21
108.735394
0
LINE
8
0
10
146.909880
20
108.735394
11
149.150104
21
108.735394
0
LINE
8
0
10
149.150104
20
108.735394
11
149.150104
21
104.472962
0
LINE
8
0
10
155.702238
20
103.507234
11
155.702238
21
100.104697
0
LINE
8
0
10
155.702357
20
100.103903
11
155.485558
21
97.980069
0
LINE
8
0
10
155.485558
20
97.980069
11
155.220578
21
97.329651
0
LINE
8
0
10
155.220578
20
97.329651
11
154.859245
21
96.863926
0
LINE
8
0
10
154.859245
20
96.863926
11
153.867585
21
96.358069
0
LINE
8
0
10
153.867585
20
96.358069
11
152.064931
21
96.225566
0
LINE
8
0
10
152.065015
20
96.225910
11
150.932865
21
96.225910
0
LINE
8
0
10
150.932753
20
96.225566
11
149.856780
21
96.289807
0
LINE
8
0
10
149.856780
20
96.289807
11
149.118053
21
96.482529
0
LINE
8
0
10
149.118053
20
96.482529
11
148.614194
21
96.846867
0
LINE
8
0
10
148.614194
20
96.846867
11
148.242823
21
97.426006
0
LINE
8
0
10
148.242823
20
97.426006
11
148.013979
21
98.217936
0
LINE
8
0
10
148.013979
20
98.217936
11
147.937698
21
99.220646
0
LINE
8
0
10
147.937785
20
99.220990
11
147.937785
21
100.128509
0
LINE
8
0
10
147.937785
20
100.128509
11
142.702481
21
100.128509
0
LINE
8
0
10
142.702481
20
100.128509
11
142.702481
21
103.507234
0
LINE
8
0
10
142.702481
20
103.507234
11
155.702238
21
103.507234
0
LINE
8
0
10
153.478153
20
100.128509
11
150.169807
21
100.128509
0
LINE
8
0
10
150.169937
20
100.127980
11
150.161920
21
99.879061
0
LINE
8
0
10
150.161907
20
99.879061
11
150.219118
21
99.484607
0
LINE
8
0
10
150.219118
20
99.484607
11
150.390753
21
99.232684
0
LINE
8
0
10
150.390753
20
99.232684
11
151.342262
21
99.052001
0
LINE
8
0
10
151.342174
20
99.051657
11
152.410296
21
99.051657
0
LINE
8
0
10
152.410206
20
99.052001
11
152.960235
21
99.104196
0
LINE
8
0
10
152.960235
20
99.104196
11
153.277406
21
99.260783
0
LINE
8
0
10
153.277406
20
99.260783
11
153.478148
21
100.127980
0
LINE
8
0
10
148.090259
20
87.529490
11
145.316019
21
87.621830
0
LINE
8
0
10
145.316019
20
87.621830
11
144.536142
21
87.812535
0
LINE
8
0
10
144.536142
20
87.812535
11
143.826522
21
88.199970
0
LINE
8
0
10
143.826522
20
88.199970
11
143.230322
21
88.771066
0
LINE
8
0
10
143.230322
20
88.771066
11
142.790701
21
89.512804
0
LINE
8
0
10
142.790701
20
89.512804
11
142.519699
21
90.408114
0
LINE
8
0
10
142.519699
20
90.408114
11
142.429365
21
91.439921
0
LINE
8
0
10
142.429365
20
91.439921
11
142.514680
21
92.430566
0
LINE
8
0
10
142.514680
20
92.430566
11
142.770625
21
93.314836
0
LINE
8
0
10
142.770625
20
93.314836
11
143.197200
21
94.064611
0
LINE
8
0
10
143.197200
20
94.064611
11
143.794402
21
94.651774
0
LINE
8
0
10
143.794402
20
94.651774
11
144.507034
21
95.055256
0
LINE
8
0
10
144.507034
20
95.055256
11
145.279887
21
95.253991
0
LINE
8
0
10
145.279887
20
95.253991
11
148.090259
21
95.350352
0
LINE
8
0
10
148.090185
20
95.350140
11
150.314534
21
95.350140
0
LINE
8
0
10
150.314471
20
95.350352
11
153.088708
21
95.258013
0
LINE
8
0
10
153.088708
20
95.258013
11
153.868588
21
95.067308
0
LINE
8
0
10
153.868588
20
95.067308
11
154.578207
21
94.679872
0
LINE
8
0
10
154.578207
20
94.679872
11
155.174409
21
94.108763
0
LINE
8
0
10
155.174409
20
94.108763
11
155.614031
21
93.367038
0
LINE
8
0
10
155.614031
20
93.367038
11
155.885031
21
92.471729
0
LINE
8
0
10
155.885031
20
92.471729
11
155.975364
21
91.439921
0
LINE
8
0
10
155.975364
20
91.439921
11
155.890049
21
90.449263
0
LINE
8
0
10
155.890049
20
90.449263
11
155.634105
21
89.565007
0
LINE
8
0
10
155.634105
20
89.565007
11
155.207529
21
88.815231
0
LINE
8
0
10
155.207529
20
88.815231
11
154.610325
21
88.228069
0
LINE
8
0
10
154.610325
20
88.228069
11
153.897695
21
87.824566
0
LINE
8
0
10
153.897695
20
87.824566
11
153.124842
21
87.625825
0
LINE
8
0
10
153.124842
20
87.625825
11
150.314471
21
87.529490
0
LINE
8
0
10
150.314534
20
87.529067
11
148.090185
21
87.529067
0
LINE
8
0
10
152.362028
20
90.909961
11
153.522309
21
91.010344
0
LINE
8
0
10
153.522309
20
91.010344
11
153.712009
21
91.163902
0
LINE
8
0
10
153.712009
20
91.163902
11
153.775243
21
91.423861
0
LINE
8
0
10
153.775243
20
91.423861
11
153.570487
21
91.829361
0
LINE
8
0
10
153.570487
20
91.829361
11
152.362028
21
91.969881
0
LINE
8
0
10
152.362142
20
91.968770
11
146.291550
21
91.968770
0
LINE
8
0
10
146.291621
20
91.969881
11
144.894464
21
91.877541
0
LINE
8
0
10
144.894464
20
91.877541
11
144.695731
21
91.723971
0
LINE
8
0
10
144.695731
20
91.723971
11
144.629487
21
91.447938
0
LINE
8
0
10
144.629487
20
91.447938
11
144.705768
21
91.164907
0
LINE
8
0
10
144.705768
20
91.164907
11
144.934612
21
91.006323
0
LINE
8
0
10
144.934612
20
91.006323
11
146.387977
21
90.909961
0
LINE
8
0
10
146.387858
20
90.910438
11
152.362142
21
90.910438
0
LINE
8
0
10
95.426526
20
117.691529
11
95.426526
21
115.297053
0
LINE
8
0
10
95.426656
20
115.298323
11
95.241974
21
112.058372
0
LINE
8
0
10
95.241974
20
112.058372
11
94.913763
21
111.289540
0
LINE
8
0
10
94.913763
20
111.289540
11
94.298492
21
110.677275
0
LINE
8
0
10
94.298492
20
110.677275
11
93.313857
21
110.276789
0
LINE
8
0
10
93.313857
20
110.276789
11
91.877555
21
110.143293
0
LINE
8
0
10
91.877555
20
110.143293
11
90.608873
21
110.237644
0
LINE
8
0
10
90.608873
20
110.237644
11
89.838028
21
110.520695
0
LINE
8
0
10
89.838028
20
110.520695
11
89.420487
21
111.080764
0
LINE
8
0
10
89.420487
20
111.080764
11
89.211715
21
112.006169
0
LINE
8
0
10
89.211715
20
112.006169
11
88.920642
21
111.167077
0
LINE
8
0
10
88.920642
20
111.167077
11
88.545257
21
110.657193
0
LINE
8
0
10
88.545257
20
110.657193
11
87.778426
21
110.227616
0
LINE
8
0
10
87.778426
20
110.227616
11
85.855329
21
110.143293
0
LINE
8
0
10
85.855236
20
110.142976
11
82.426770
21
110.142976
0
LINE
8
0
10
82.426770
20
110.142976
11
82.426770
21
113.283576
0
LINE
8
0
10
82.426770
20
113.283576
11
86.746616
21
113.283576
0
LINE
8
0
10
86.746619
20
113.282888
11
88.039390
21
113.447512
0
LINE
8
0
10
88.039390
20
113.447512
11
88.226078
21
113.745604
0
LINE
8
0
10
88.226078
20
113.745604
11
88.288307
21
114.310687
0
LINE
8
0
10
88.288341
20
114.310158
11
82.426770
21
114.310158
0
LINE
8
0
10
82.426770
20
114.310158
11
82.426770
21
117.691529
0
LINE
8
0
10
82.426770
20
117.691529
11
95.426526
21
117.691529
0
LINE
8
0
10
93.202441
20
114.310158
11
90.311872
21
114.310158
0
LINE
8
0
10
90.311777
20
114.310687
11
90.468355
21
113.511726
0
LINE
8
0
10
90.468355
20
113.511726
11
90.800581
21
113.340098
0
LINE
8
0
10
90.800581
20
113.340098
11
91.484105
21
113.282888
0
LINE
8
0
10
91.483975
20
113.283576
11
92.198614
21
113.283576
0
LINE
8
0
10
92.198741
20
113.282888
11
92.710631
21
113.338093
0
LINE
8
0
10
92.710631
20
113.338093
11
93.009735
21
113.503709
0
LINE
8
0
10
93.009735
20
113.503709
11
93.202447
21
114.310687
0
LINE
8
0
10
95.426526
20
108.833290
11
95.426526
21
105.430753
0
LINE
8
0
10
95.426656
20
105.429906
11
95.209857
21
103.306072
0
LINE
8
0
10
95.209857
20
103.306072
11
94.944877
21
102.655674
0
LINE
8
0
10
94.944877
20
102.655674
11
94.583544
21
102.189955
0
LINE
8
0
10
94.583544
20
102.189955
11
93.591884
21
101.684072
0
LINE
8
0
10
93.591884
20
101.684072
11
91.789230
21
101.551595
0
LINE
8
0
10
91.789304
20
101.551966
11
90.657153
21
101.551966
0
LINE
8
0
10
90.657050
20
101.551595
11
89.581079
21
101.615830
0
LINE
8
0
10
89.581079
20
101.615830
11
88.842354
21
101.808532
0
LINE
8
0
10
88.842354
20
101.808532
11
88.338492
21
102.172889
0
LINE
8
0
10
88.338492
20
102.172889
11
87.967122
21
102.752035
0
LINE
8
0
10
87.967122
20
102.752035
11
87.738278
21
103.543945
0
LINE
8
0
10
87.738278
20
103.543945
11
87.661997
21
104.546649
0
LINE
8
0
10
87.662073
20
104.547045
11
87.662073
21
105.454565
0
LINE
8
0
10
87.662073
20
105.454565
11
82.426770
21
105.454565
0
LINE
8
0
10
82.426770
20
105.454565
11
82.426770
21
108.833290
0
LINE
8
0
10
82.426770
20
108.833290
11
95.426526
21
108.833290
0
LINE
8
0
10
93.202441
20
105.454565
11
89.894360
21
105.454565
0
LINE
8
0
10
89.894236
20
105.454010
11
89.886219
21
105.205090
0
LINE
8
0
10
89.886206
20
105.205090
11
89.943417
21
104.810630
0
LINE
8
0
10
89.943417
20
104.810630
11
90.115049
21
104.558687
0
LINE
8
0
10
90.115049
20
104.558687
11
91.066563
21
104.378030
0
LINE
8
0
10
91.066463
20
104.377712
11
92.134585
21
104.377712
0
LINE
8
0
10
92.134505
20
104.378030
11
92.684535
21
104.430219
0
LINE
8
0
10
92.684535
20
104.430219
11
93.001705
21
104.586786
0
LINE
8
0
10
93.001705
20
104.586786
11
93.202447
21
105.454010
0
LINE
8
0
10
88.874393
20
96.702160
11
86.634169
21
96.702160
0
LINE
8
0
10
86.634169
20
96.702160
11
86.634169
21
100.964592
0
LINE
8
0
10
86.634169
20
100.964592
11
88.874393
21
100.964592
0
LINE
8
0
10
88.874393
20
100.964592
11
88.874393
21
96.702160
0
LINE
8
0
10
89.793866
20
89.740002
11
89.465482
21
89.095617
0
LINE
8
0
10
89.465482
20
89.095617
11
88.978419
21
88.639945
0
LINE
8
0
10
88.978419
20
88.639945
11
88.031408
21
88.368939
0
LINE
8
0
10
88.031408
20
88.368939
11
86.323180
21
88.278604
0
LINE
8
0
10
86.323180
20
88.278604
11
84.946425
21
88.366928
0
LINE
8
0
10
84.946425
20
88.366928
11
83.917110
21
88.631902
0
LINE
8
0
10
83.917110
20
88.631902
11
83.163940
21
89.113674
0
LINE
8
0
10
83.163940
20
89.113674
11
82.615618
21
89.852397
0
LINE
8
0
10
82.615618
20
89.852397
11
82.281198
21
90.842063
0
LINE
8
0
10
82.281198
20
90.842063
11
82.169725
21
92.076614
0
LINE
8
0
10
82.169725
20
92.076614
11
82.299202
21
93.452697
0
LINE
8
0
10
82.299202
20
93.452697
11
82.687635
21
94.497548
0
LINE
8
0
10
82.687635
20
94.497548
11
83.263761
21
95.226249
0
LINE
8
0
10
83.263761
20
95.226249
11
83.956319
21
95.653829
0
LINE
8
0
10
83.956319
20
95.653829
11
84.983108
21
95.861593
0
LINE
8
0
10
84.983108
20
95.861593
11
86.561935
21
95.930847
0
LINE
8
0
10
86.561937
20
95.929577
11
87.589842
21
95.929577
0
LINE
8
0
10
87.589842
20
95.929577
11
87.589842
21
92.685790
0
LINE
8
0
10
87.589842
20
92.685790
11
85.477941
21
92.685790
0
LINE
8
0
10
85.477936
20
92.686874
11
84.405977
21
92.586492
0
LINE
8
0
10
84.405977
20
92.586492
11
84.234343
21
92.424904
0
LINE
8
0
10
84.234343
20
92.424904
11
84.177132
21
92.140854
0
LINE
8
0
10
84.177132
20
92.140854
11
84.249399
21
91.827694
0
LINE
8
0
10
84.249399
20
91.827694
11
84.466199
21
91.643015
0
LINE
8
0
10
84.466199
20
91.643015
11
85.975772
21
91.522577
0
LINE
8
0
10
85.975886
20
91.521624
11
86.875204
21
91.521624
0
LINE
8
0
10
86.875093
20
91.522577
11
87.967122
21
91.691196
0
LINE
8
0
10
87.967122
20
91.691196
11
88.420797
21
92.189035
0
LINE
8
0
10
88.420797
20
92.189035
11
88.545257
21
93.465754
0
LINE
8
0
10
88.545252
20
93.466309
11
90.432257
21
93.466309
0
LINE
8
0
10
90.432223
20
93.465754
11
90.520546
21
92.036476
0
LINE
8
0
10
90.520546
20
92.036476
11
90.905970
21
91.643015
0
LINE
8
0
10
90.905970
20
91.643015
11
91.837408
21
91.522577
0
LINE
8
0
10
91.837458
20
91.521624
11
92.560034
21
91.521624
0
LINE
8
0
10
92.560076
20
91.522577
11
93.459394
21
91.663097
0
LINE
8
0
10
93.459394
20
91.663097
11
93.676196
21
92.100717
0
LINE
8
0
10
93.676196
20
92.100717
11
93.447350
21
92.562415
0
LINE
8
0
10
93.447350
20
92.562415
11
92.471751
21
92.686874
0
LINE
8
0
10
92.471663
20
92.685790
11
91.403806
21
92.685790
0
LINE
8
0
10
91.403806
20
92.685790
11
91.403806
21
95.929577
0
LINE
8
0
10
91.403806
20
95.929577
11
92.511880
21
95.929577
0
LINE
8
0
10
92.511896
20
95.930847
11
94.072658
21
95.718063
0
LINE
8
0
10
94.072658
20
95.718063
11
94.626453
21
95.452083
0
LINE
8
0
10
94.626453
20
95.452083
11
95.029189
21
95.079710
0
LINE
8
0
10
95.029189
20
95.079710
11
95.519999
21
93.977643
0
LINE
8
0
10
95.519999
20
93.977643
11
95.683603
21
92.373714
0
LINE
8
0
10
95.683603
20
92.373714
11
95.456923
21
90.426535
0
LINE
8
0
10
95.456923
20
90.426535
11
95.173573
21
89.732975
0
LINE
8
0
10
95.173573
20
89.732975
11
94.776882
21
89.226102
0
LINE
8
0
10
94.776882
20
89.226102
11
93.693635
21
88.605807
0
LINE
8
0
10
93.693635
20
88.605807
11
92.257332
21
88.399042
0
LINE
8
0
10
92.257332
20
88.399042
11
91.317504
21
88.473317
0
LINE
8
0
10
91.317504
20
88.473317
11
90.680574
21
88.696143
0
LINE
8
0
10
90.680574
20
88.696143
11
90.216158
21
89.105657
0
LINE
8
0
10
90.216158
20
89.105657
11
89.793866
21
89.740002
0
LINE
8
0
10
95.426526
20
87.018422
11
95.426526
21
83.644988
0
LINE
8
0
10
95.426656
20
83.645491
11
95.364474
21
82.241309
0
LINE
8
0
10
95.364474
20
82.241309
11
95.177927
21
81.224557
0
LINE
8
0
10
95.177927
20
81.224557
11
94.801803
21
80.480814
0
LINE
8
0
10
94.801803
20
80.480814
11
94.170897
21
79.895662
0
LINE
8
0
10
94.170897
20
79.895662
11
93.180898
21
79.516270
0
LINE
8
0
10
93.180898
20
79.516270
11
91.727502
21
79.389806
0
LINE
8
0
10
91.727502
20
79.389806
11
90.760574
21
79.479129
0
LINE
8
0
10
90.760574
20
79.479129
11
90.138700
21
79.747099
0
LINE
8
0
10
90.138700
20
79.747099
11
89.741499
21
80.278077
0
LINE
8
0
10
89.741499
20
80.278077
11
89.448591
21
81.156321
0
LINE
8
0
10
89.448591
20
81.156321
11
89.096102
21
80.172681
0
LINE
8
0
10
89.096102
20
80.172681
11
88.568844
21
79.566442
0
LINE
8
0
10
88.568844
20
79.566442
11
87.790501
21
79.253288
0
LINE
8
0
10
87.790501
20
79.253288
11
86.684762
21
79.148903
0
LINE
8
0
10
86.684704
20
79.149723
11
85.479793
21
79.149723
0
LINE
8
0
10
85.479692
20
79.148903
11
84.332802
21
79.224184
0
LINE
8
0
10
84.332802
20
79.224184
11
83.527358
21
79.450025
0
LINE
8
0
10
83.527358
20
79.450025
11
82.993075
21
79.840457
0
LINE
8
0
10
82.993075
20
79.840457
11
82.659658
21
80.409562
0
LINE
8
0
10
82.659658
20
80.409562
11
82.484918
21
81.413257
0
LINE
8
0
10
82.484918
20
81.413257
11
82.426672
21
83.107515
0
LINE
8
0
10
82.426770
20
83.107885
11
82.426770
21
87.018422
0
LINE
8
0
10
82.426770
20
87.018422
11
95.426526
21
87.018422
0
LINE
8
0
10
93.202441
20
83.637051
11
90.311872
21
83.637051
0
LINE
8
0
10
90.311777
20
83.637474
11
90.319794
21
83.300237
0
LINE
8
0
10
90.319807
20
83.300237
11
90.381033
21
82.892726
0
LINE
8
0
10
90.381033
20
82.892726
11
90.564710
21
82.665873
0
LINE
8
0
10
90.564710
20
82.665873
11
91.965881
21
82.529374
0
LINE
8
0
10
91.965881
20
82.529374
11
92.821040
21
82.641796
0
LINE
8
0
10
92.821040
20
82.641796
11
93.130179
21
82.934874
0
LINE
8
0
10
93.130179
20
82.934874
11
93.202447
21
83.637474
0
LINE
8
0
10
88.288341
20
83.637051
11
84.650854
21
83.637051
0
LINE
8
0
10
84.650881
20
83.637474
11
84.875713
21
82.726118
0
LINE
8
0
10
84.875713
20
82.726118
11
85.222993
21
82.578560
0
LINE
8
0
10
85.222993
20
82.578560
11
85.863356
21
82.529374
0
LINE
8
0
10
85.863438
20
82.528448
11
87.075758
21
82.528448
0
LINE
8
0
10
87.075834
20
82.529374
11
88.087568
21
82.706036
0
LINE
8
0
10
88.087568
20
82.706036
11
88.288307
21
83.637474
0
LINE
8
0
10
89.894360
20
78.096683
11
89.894360
21
75.215374
0
LINE
8
0
10
89.894360
20
75.215374
11
92.784930
21
75.215374
0
LINE
8
0
10
92.784930
20
75.215374
11
92.784930
21
73.254814
0
LINE
8
0
10
92.784930
20
73.254814
11
89.894360
21
73.254814
0
LINE
8
0
10
89.894360
20
73.254814
11
89.894360
21
70.357630
0
LINE
8
0
10
89.894360
20
70.357630
11
87.935123
21
70.357630
0
LINE
8
0
10
87.935123
20
70.357630
11
87.935123
21
73.254814
0
LINE
8
0
10
87.935123
20
73.254814
11
85.060429
21
73.254814
0
LINE
8
0
10
85.060429
20
73.254814
11
85.060429
21
75.215374
0
LINE
8
0
10
85.060429
20
75.215374
11
87.935123
21
75.215374
0
LINE
8
0
10
87.935123
20
75.215374
11
87.935123
21
78.096683
0
LINE
8
0
10
87.935123
20
78.096683
11
89.894360
21
78.096683
0
LINE
8
0
10
23.769407
20
198.338012
11
20.871324
21
198.338012
0
LINE
8
0
10
20.871324
20
198.338012
11
20.871324
21
199.227276
0
LINE
8
0
10
20.871329
20
199.227355
11
20.760148
21
200.020435
0
LINE
8
0
10
20.760148
20
200.020435
11
20.389551
21
200.190908
0
LINE
8
0
10
20.389551
20
200.190908
11
19.963362
21
199.960965
0
LINE
8
0
10
19.963362
20
199.960965
11
19.818828
21
199.263717
0
LINE
8
0
10
19.818828
20
199.263717
11
19.981312
21
198.358877
0
LINE
8
0
10
19.981312
20
198.358877
11
20.863106
21
197.625210
0
LINE
8
0
10
20.863106
20
197.625210
11
22.561056
21
196.499458
0
LINE
8
0
10
22.561056
20
196.499458
11
23.487756
21
195.595488
0
LINE
8
0
10
23.487756
20
195.595488
11
23.893561
21
194.559664
0
LINE
8
0
10
23.893561
20
194.559664
11
24.028830
21
193.038357
0
LINE
8
0
10
24.028830
20
193.038357
11
23.953784
21
191.924707
0
LINE
8
0
10
23.953784
20
191.924707
11
23.728645
21
191.148303
0
LINE
8
0
10
23.728645
20
191.148303
11
23.288558
21
190.589625
0
LINE
8
0
10
23.288558
20
190.589625
11
22.568670
21
190.129156
0
LINE
8
0
10
22.568670
20
190.129156
11
21.638468
21
189.820633
0
LINE
8
0
10
21.638468
20
189.820633
11
20.567438
21
189.717792
0
LINE
8
0
10
20.567438
20
189.717792
11
19.406537
21
189.836384
0
LINE
8
0
10
19.406537
20
189.836384
11
18.429083
21
190.192158
0
LINE
8
0
10
18.429083
20
190.192158
11
17.696225
21
190.731379
0
LINE
8
0
10
17.696225
20
190.731379
11
17.269110
21
191.400310
0
LINE
8
0
10
17.269110
20
191.400310
11
17.063428
21
192.287894
0
LINE
8
0
10
17.063428
20
192.287894
11
16.994867
21
193.483073
0
LINE
8
0
10
16.994865
20
193.483179
11
16.994865
21
194.268726
0
LINE
8
0
10
16.994865
20
194.268726
11
19.892949
21
194.268726
0
LINE
8
0
10
19.892949
20
194.268726
11
19.892949
21
192.808492
0
LINE
8
0
10
19.892949
20
192.808585
11
20.015246
21
191.941382
0
LINE
8
0
10
20.015246
20
191.941382
11
20.448846
21
191.748673
0
LINE
8
0
10
20.448846
20
191.748673
11
20.912095
21
191.993267
0
LINE
8
0
10
20.912095
20
191.993267
11
21.064040
21
192.719640
0
LINE
8
0
10
21.064040
20
192.719640
11
20.991773
21
193.596107
0
LINE
8
0
10
20.991773
20
193.596107
11
20.774973
21
194.105679
0
LINE
8
0
10
20.774973
20
194.105679
11
19.314814
21
195.195240
0
LINE
8
0
10
19.314814
20
195.195240
11
17.773124
21
196.314447
0
LINE
8
0
10
17.773124
20
196.314447
11
17.146812
21
197.278006
0
LINE
8
0
10
17.146812
20
197.278006
11
16.898510
21
198.849343
0
LINE
8
0
10
16.898510
20
198.849343
11
16.986528
21
200.042670
0
LINE
8
0
10
16.986528
20
200.042670
11
17.250579
21
200.865399
0
LINE
8
0
10
17.250579
20
200.865399
11
17.711049
21
201.433342
0
LINE
8
0
10
17.711049
20
201.433342
11
18.388318
21
201.862311
0
LINE
8
0
10
18.388318
20
201.862311
11
19.255519
21
202.131922
0
LINE
8
0
10
19.255519
20
202.131922
11
20.285783
21
202.221792
0
LINE
8
0
10
20.285783
20
202.221792
11
21.411477
21
202.123583
0
LINE
8
0
10
21.411477
20
202.123583
11
22.357429
21
201.828958
0
LINE
8
0
10
22.357429
20
201.828958
11
23.068979
21
201.385164
0
LINE
8
0
10
23.068979
20
201.385164
11
23.491461
21
200.839457
0
LINE
8
0
10
23.491461
20
200.839457
11
23.699923
21
200.034331
0
LINE
8
0
10
23.699923
20
200.034331
11
23.769410
21
198.812283
0
LINE
8
0
10
23.769407
20
198.812410
11
23.769407
21
198.338012
0
LINE
8
0
10
31.700229
20
194.713490
11
27.823771
21
194.713490
0
LINE
8
0
10
27.823771
20
194.713490
11
27.823771
21
192.586243
0
LINE
8
0
10
27.823763
20
192.586224
11
27.920116
21
191.726435
0
LINE
8
0
10
27.920116
20
191.726435
11
28.290715
21
191.533726
0
LINE
8
0
10
28.290715
20
191.533726
11
28.575150
21
191.597654
0
LINE
8
0
10
28.575150
20
191.597654
11
28.746551
21
191.789438
0
LINE
8
0
10
28.746551
20
191.789438
11
28.861436
21
192.778936
0
LINE
8
0
10
28.861439
20
192.778859
11
28.861439
21
194.076109
0
LINE
8
0
10
28.861439
20
194.076109
11
31.700229
21
194.076109
0
LINE
8
0
10
31.700229
20
194.076109
11
31.700229
21
193.349565
0
LINE
8
0
10
31.700224
20
193.349657
11
31.585336
21
191.948796
0
LINE
8
0
10
31.585336
20
191.948796
11
31.047968
21
190.903706
0
LINE
8
0
10
31.047968
20
190.903706
11
30.568969
21
190.417296
0
LINE
8
0
10
30.568969
20
190.417296
11
29.976939
21
190.069860
0
LINE
8
0
10
29.976939
20
190.069860
11
29.245933
21
189.861399
0
LINE
8
0
10
29.245933
20
189.861399
11
28.350010
21
189.791913
0
LINE
8
0
10
28.350010
20
189.791913
11
27.456867
21
189.860473
0
LINE
8
0
10
27.456867
20
189.860473
11
26.674906
21
190.066156
0
LINE
8
0
10
26.674906
20
190.066156
11
26.029137
21
190.391356
0
LINE
8
0
10
26.029137
20
190.391356
11
25.544579
21
190.818471
0
LINE
8
0
10
25.544579
20
190.818471
11
24.984975
21
191.870969
0
LINE
8
0
10
24.984975
20
191.870969
11
24.829324
21
193.542371
0
LINE
8
0
10
24.829327
20
193.542446
11
24.829327
21
196.410790
0
LINE
8
0
10
24.829324
20
196.410803
11
24.916415
21
197.564292
0
LINE
8
0
10
24.916415
20
197.564292
11
25.177687
21
198.445391
0
LINE
8
0
10
25.177687
20
198.445391
11
25.637229
21
199.103202
0
LINE
8
0
10
25.637229
20
199.103202
11
26.319131
21
199.586834
0
LINE
8
0
10
26.319131
20
199.586834
11
27.171507
21
199.884239
0
LINE
8
0
10
27.171507
20
199.884239
11
28.142474
21
199.983375
0
LINE
8
0
10
28.142474
20
199.983375
11
29.292257
21
199.863857
0
LINE
8
0
10
29.292257
20
199.863857
11
30.221533
21
199.505302
0
LINE
8
0
10
30.221533
20
199.505302
11
30.918260
21
198.949404
0
LINE
8
0
10
30.918260
20
198.949404
11
31.370392
21
198.237855
0
LINE
8
0
10
31.370392
20
198.237855
11
31.617766
21
197.288195
0
LINE
8
0
10
31.617766
20
197.288195
11
31.700224
21
196.017969
0
LINE
8
0
10
31.700229
20
196.017884
11
31.700229
21
194.713490
0
LINE
8
0
10
28.698376
20
196.314482
11
28.698376
21
197.033354
0
LINE
8
0
10
28.698373
20
197.033409
11
28.616842
21
198.019200
0
LINE
8
0
10
28.616842
20
198.019200
11
28.283304
21
198.241561
0
LINE
8
0
10
28.283304
20
198.241561
11
27.897880
21
198.052556
0
LINE
8
0
10
27.897880
20
198.052556
11
27.823763
21
197.033409
0
LINE
8
0
10
27.823771
20
197.033354
11
27.823771
21
196.314482
0
LINE
8
0
10
27.823771
20
196.314482
11
28.698376
21
196.314482
0
LINE
8
0
10
35.673049
20
199.805390
11
35.554436
21
198.512108
0
LINE
8
0
10
35.554449
20
198.512097
11
35.917172
21
199.125120
0
LINE
8
0
10
35.917172
20
199.125120
11
36.353088
21
199.574673
0
LINE
8
0
10
36.353088
20
199.574673
11
36.862198
21
199.860758
0
LINE
8
0
10
36.862198
20
199.860758
11
37.444501
21
199.983375
0
LINE
8
0
10
37.444501
20
199.983454
11
37.444501
21
196.521915
0
LINE
8
0
10
37.444501
20
196.521983
11
36.236351
21
196.299625
0
LINE
8
0
10
36.236351
20
196.299625
11
35.925047
21
196.033720
0
LINE
8
0
10
35.925047
20
196.033720
11
35.761983
21
195.680726
0
LINE
8
0
10
35.761983
20
195.680726
11
35.673041
21
193.853675
0
LINE
8
0
10
35.673049
20
193.853595
11
35.673049
21
189.969781
0
LINE
8
0
10
35.673049
20
189.969781
11
32.678604
21
189.969781
0
LINE
8
0
10
32.678604
20
189.969781
11
32.678604
21
199.805390
0
LINE
8
0
10
32.678604
20
199.805390
11
35.673049
21
199.805390
0
LINE
8
0
10
44.582220
20
199.805390
11
43.181358
21
189.969781
0
LINE
8
0
10
43.181358
20
189.969781
11
39.267848
21
189.969781
0
LINE
8
0
10
39.267848
20
189.969781
11
37.763217
21
199.805390
0
LINE
8
0
10
37.763217
20
199.805390
11
40.437318
21
199.805390
0
LINE
8
0
10
40.437318
20
199.805390
11
41.280197
21
192.623284
0
LINE
8
0
10
41.280200
20
192.623287
11
41.617789
21
196.483651
0
LINE
8
0
10
41.617789
20
196.483651
11
41.908249
21
199.805488
0
LINE
8
0
10
41.908238
20
199.805390
11
44.582220
21
199.805390
0
LINE
8
0
10
51.794091
20
196.351523
11
51.794091
21
193.942495
0
LINE
8
0
10
51.794083
20
193.942617
11
51.660667
21
191.996974
0
LINE
8
0
10
51.660667
20
191.996974
11
51.451277
21
191.398457
0
LINE
8
0
10
51.451277
20
191.398457
11
51.089943
21
190.840707
0
LINE
8
0
10
51.089943
20
190.840707
11
50.590561
21
190.373752
0
LINE
8
0
10
50.590561
20
190.373752
11
49.967031
21
190.047624
0
LINE
8
0
10
49.967031
20
190.047624
11
48.391987
21
189.791913
0
LINE
8
0
10
48.391987
20
189.791913
11
46.709470
21
190.010564
0
LINE
8
0
10
46.709470
20
190.010564
11
46.097054
21
190.284808
0
LINE
8
0
10
46.097054
20
190.284808
11
45.638438
21
190.670230
0
LINE
8
0
10
45.638438
20
190.670230
11
45.093659
21
191.737556
0
LINE
8
0
10
45.093659
20
191.737556
11
44.930593
21
193.616489
0
LINE
8
0
10
44.930596
20
193.616529
11
44.930596
21
196.136682
0
LINE
8
0
10
44.930593
20
196.136560
11
45.004713
21
197.357683
0
LINE
8
0
10
45.004713
20
197.357683
11
45.227072
21
198.278621
0
LINE
8
0
10
45.227072
20
198.278621
11
45.642144
21
198.973493
0
LINE
8
0
10
45.642144
20
198.973493
11
46.294397
21
199.516420
0
LINE
8
0
10
46.294397
20
199.516420
11
47.172715
21
199.866636
0
LINE
8
0
10
47.172715
20
199.866636
11
48.265982
21
199.983375
0
LINE
8
0
10
48.265982
20
199.983375
11
49.202670
21
199.908328
0
LINE
8
0
10
49.202670
20
199.908328
11
49.996681
21
199.683189
0
LINE
8
0
10
49.996681
20
199.683189
11
50.636887
21
199.337606
0
LINE
8
0
10
50.636887
20
199.337606
11
51.112181
21
198.901228
0
LINE
8
0
10
51.112181
20
198.901228
11
51.649549
21
197.908020
0
LINE
8
0
10
51.649549
20
197.908020
11
51.794083
21
196.351507
0
LINE
8
0
10
48.799644
20
197.092705
11
48.718115
21
198.045143
0
LINE
8
0
10
48.718115
20
198.045143
11
48.369752
21
198.241561
0
LINE
8
0
10
48.369752
20
198.241561
11
48.013975
21
198.045143
0
LINE
8
0
10
48.013975
20
198.045143
11
47.925035
21
197.092705
0
LINE
8
0
10
47.925041
20
197.092620
11
47.925041
21
192.652917
0
LINE
8
0
10
47.925035
20
192.652933
11
48.013975
21
191.744967
0
LINE
8
0
10
48.013975
20
191.744967
11
48.362338
21
191.533726
0
LINE
8
0
10
48.362338
20
191.533726
11
48.714408
21
191.726435
0
LINE
8
0
10
48.714408
20
191.726435
11
48.799644
21
192.556578
0
LINE
8
0
10
48.799646
20
192.556609
11
48.799646
21
197.092620
0
LINE
8
0
10
60.073263
20
201.969679
11
60.073263
21
189.969781
0
LINE
8
0
10
60.073263
20
189.969781
11
57.078819
21
189.969781
0
LINE
8
0
10
57.078819
20
189.969781
11
57.078819
21
196.403382
0
LINE
8
0
10
57.078819
20
196.403392
11
57.012109
21
198.078496
0
LINE
8
0
10
57.012109
20
198.078496
11
56.645217
21
198.504686
0
LINE
8
0
10
56.645217
20
198.504686
11
55.307356
21
198.649220
0
LINE
8
0
10
55.307356
20
198.649162
11
55.010891
21
198.649162
0
LINE
8
0
10
55.010891
20
198.649162
11
55.010891
21
200.048277
0
LINE
8
0
10
55.010878
20
200.048232
11
56.031414
21
200.343610
0
LINE
8
0
10
56.031414
20
200.343610
11
56.921314
21
200.762328
0
LINE
8
0
10
56.921314
20
200.762328
11
57.680577
21
201.304386
0
LINE
8
0
10
57.680577
20
201.304386
11
58.309204
21
201.969785
0
LINE
8
0
10
58.309209
20
201.969679
11
60.073263
21
201.969679
0
LINE
8
0
10
54.254845
20
13.670725
11
57.152928
21
13.670725
0
LINE
8
0
10
57.152928
20
13.670725
11
57.152928
21
12.781726
0
LINE
8
0
10
57.152939
20
12.780774
11
57.264119
21
11.987686
0
LINE
8
0
10
57.264119
20
11.987686
11
57.634715
21
11.817215
0
LINE
8
0
10
57.634715
20
11.817215
11
58.060906
21
12.047164
0
LINE
8
0
10
58.060906
20
12.047164
11
58.205440
21
12.744420
0
LINE
8
0
10
58.205440
20
12.744420
11
58.042954
21
13.649241
0
LINE
8
0
10
58.042954
20
13.649241
11
57.161162
21
14.382930
0
LINE
8
0
10
57.161162
20
14.382930
11
55.463211
21
15.508677
0
LINE
8
0
10
55.463211
20
15.508677
11
54.536512
21
16.412652
0
LINE
8
0
10
54.536512
20
16.412652
11
54.130706
21
17.448461
0
LINE
8
0
10
54.130706
20
17.448461
11
53.995437
21
18.969767
0
LINE
8
0
10
53.995437
20
18.969767
11
54.070484
21
20.083417
0
LINE
8
0
10
54.070484
20
20.083417
11
54.295622
21
20.859816
0
LINE
8
0
10
54.295622
20
20.859816
11
54.735709
21
21.418502
0
LINE
8
0
10
54.735709
20
21.418502
11
55.455597
21
21.878963
0
LINE
8
0
10
55.455597
20
21.878963
11
56.385799
21
22.187493
0
LINE
8
0
10
56.385799
20
22.187493
11
57.456828
21
22.290337
0
LINE
8
0
10
57.456828
20
22.290337
11
58.617729
21
22.171744
0
LINE
8
0
10
58.617729
20
22.171744
11
59.595183
21
21.815966
0
LINE
8
0
10
59.595183
20
21.815966
11
60.328042
21
21.276746
0
LINE
8
0
10
60.328042
20
21.276746
11
60.755157
21
20.607827
0
LINE
8
0
10
60.755157
20
20.607827
11
60.960839
21
19.720237
0
LINE
8
0
10
60.960839
20
19.720237
11
61.029400
21
18.525056
0
LINE
8
0
10
61.029413
20
18.525823
11
61.029413
21
17.740012
0
LINE
8
0
10
61.029413
20
17.740012
11
58.131330
21
17.740012
0
LINE
8
0
10
58.131330
20
17.740012
11
58.131330
21
19.200510
0
LINE
8
0
10
58.131319
20
19.199531
11
58.009021
21
20.066755
0
LINE
8
0
10
58.009021
20
20.066755
11
57.575422
21
20.259450
0
LINE
8
0
10
57.575422
20
20.259450
11
57.112172
21
20.014870
0
LINE
8
0
10
57.112172
20
20.014870
11
56.960227
21
19.288484
0
LINE
8
0
10
56.960227
20
19.288484
11
57.032494
21
18.412013
0
LINE
8
0
10
57.032494
20
18.412013
11
57.249295
21
17.902439
0
LINE
8
0
10
57.249295
20
17.902439
11
58.709452
21
16.812886
0
LINE
8
0
10
58.709452
20
16.812886
11
60.251142
21
15.693674
0
LINE
8
0
10
60.251142
20
15.693674
11
60.877455
21
14.730115
0
LINE
8
0
10
60.877455
20
14.730115
11
61.125756
21
13.158783
0
LINE
8
0
10
61.125756
20
13.158783
11
61.037739
21
11.965455
0
LINE
8
0
10
61.037739
20
11.965455
11
60.773689
21
11.142740
0
LINE
8
0
10
60.773689
20
11.142740
11
60.313219
21
10.574793
0
LINE
8
0
10
60.313219
20
10.574793
11
59.635950
21
10.145818
0
LINE
8
0
10
59.635950
20
10.145818
11
58.768748
21
9.876201
0
LINE
8
0
10
58.768748
20
9.876201
11
57.738485
21
9.786329
0
LINE
8
0
10
57.738485
20
9.786329
11
56.612790
21
9.884542
0
LINE
8
0
10
56.612790
20
9.884542
11
55.666837
21
10.179182
0
LINE
8
0
10
55.666837
20
10.179182
11
54.955288
21
10.622967
0
LINE
8
0
10
54.955288
20
10.622967
11
54.532805
21
11.168669
0
LINE
8
0
10
54.532805
20
11.168669
11
54.324343
21
11.973796
0
LINE
8
0
10
54.324343
20
11.973796
11
54.254856
21
13.195852
0
LINE
8
0
10
54.254845
20
13.197122
11
54.254845
21
13.670725
0
LINE
8
0
10
46.324049
20
17.295512
11
50.200507
21
17.295512
0
LINE
8
0
10
50.200507
20
17.295512
11
50.200507
21
19.422760
0
LINE
8
0
10
50.200507
20
19.421913
11
50.104152
21
20.281702
0
LINE
8
0
10
50.104152
20
20.281702
11
49.733550
21
20.474398
0
LINE
8
0
10
49.733550
20
20.474398
11
49.449116
21
20.410468
0
LINE
8
0
10
49.449116
20
20.410468
11
49.277713
21
20.218678
0
LINE
8
0
10
49.277713
20
20.218678
11
49.162829
21
19.229191
0
LINE
8
0
10
49.162839
20
19.229614
11
49.162839
21
17.933157
0
LINE
8
0
10
49.162839
20
17.933157
11
46.324049
21
17.933157
0
LINE
8
0
10
46.324049
20
17.933157
11
46.324049
21
18.658115
0
LINE
8
0
10
46.324046
20
18.658459
11
46.438931
21
20.059320
0
LINE
8
0
10
46.438931
20
20.059320
11
46.976299
21
21.104423
0
LINE
8
0
10
46.976299
20
21.104423
11
47.455297
21
21.590825
0
LINE
8
0
10
47.455297
20
21.590825
11
48.047328
21
21.938256
0
LINE
8
0
10
48.047328
20
21.938256
11
48.778335
21
22.146734
0
LINE
8
0
10
48.778335
20
22.146734
11
49.674257
21
22.216227
0
LINE
8
0
10
49.674257
20
22.216227
11
50.567399
21
22.147667
0
LINE
8
0
10
50.567399
20
22.147667
11
51.349364
21
21.941987
0
LINE
8
0
10
51.349364
20
21.941987
11
51.995131
21
21.616768
0
LINE
8
0
10
51.995131
20
21.616768
11
52.479689
21
21.189645
0
LINE
8
0
10
52.479689
20
21.189645
11
53.039292
21
20.137160
0
LINE
8
0
10
53.039292
20
20.137160
11
53.194944
21
18.465763
0
LINE
8
0
10
53.194952
20
18.464969
11
53.194952
21
15.596889
0
LINE
8
0
10
53.194944
20
15.597313
11
53.107853
21
14.443830
0
LINE
8
0
10
53.107853
20
14.443830
11
52.846581
21
13.562749
0
LINE
8
0
10
52.846581
20
13.562749
11
52.387038
21
12.904929
0
LINE
8
0
10
52.387038
20
12.904929
11
51.705135
21
12.421285
0
LINE
8
0
10
51.705135
20
12.421285
11
50.852761
21
12.123887
0
LINE
8
0
10
50.852761
20
12.123887
11
49.881793
21
12.024754
0
LINE
8
0
10
49.881793
20
12.024754
11
48.732010
21
12.144273
0
LINE
8
0
10
48.732010
20
12.144273
11
47.802732
21
12.502829
0
LINE
8
0
10
47.802732
20
12.502829
11
47.106007
21
13.058725
0
LINE
8
0
10
47.106007
20
13.058725
11
46.653878
21
13.770261
0
LINE
8
0
10
46.653878
20
13.770261
11
46.406504
21
14.719929
0
LINE
8
0
10
46.406504
20
14.719929
11
46.324046
21
15.990166
0
LINE
8
0
10
46.324049
20
15.991118
11
46.324049
21
17.295512
0
LINE
8
0
10
49.325902
20
15.694785
11
49.325902
21
14.975119
0
LINE
8
0
10
49.325894
20
14.974722
11
49.407425
21
13.988939
0
LINE
8
0
10
49.407425
20
13.988939
11
49.740964
21
13.766557
0
LINE
8
0
10
49.740964
20
13.766557
11
50.126387
21
13.955575
0
LINE
8
0
10
50.126387
20
13.955575
11
50.200507
21
14.974722
0
LINE
8
0
10
50.200507
20
14.975119
11
50.200507
21
15.694785
0
LINE
8
0
10
50.200507
20
15.694785
11
49.325902
21
15.694785
0
LINE
8
0
10
42.351229
20
12.202289
11
42.469815
21
13.496100
0
LINE
8
0
10
42.469818
20
13.496021
11
42.107094
21
12.883000
0
LINE
8
0
10
42.107094
20
12.883000
11
41.671177
21
12.433449
0
LINE
8
0
10
41.671177
20
12.433449
11
41.162067
21
12.147367
0
LINE
8
0
10
41.162067
20
12.147367
11
40.579764
21
12.024754
0
LINE
8
0
10
40.579764
20
12.025019
11
40.579764
21
15.485764
0
LINE
8
0
10
40.579764
20
15.486135
11
41.787916
21
15.708517
0
LINE
8
0
10
41.787916
20
15.708517
11
42.099221
21
15.974416
0
LINE
8
0
10
42.099221
20
15.974416
11
42.262282
21
16.327403
0
LINE
8
0
10
42.262282
20
16.327403
11
42.351227
21
18.154454
0
LINE
8
0
10
42.351229
20
18.155407
11
42.351229
21
22.039485
0
LINE
8
0
10
42.351229
20
22.039485
11
45.345674
21
22.039485
0
LINE
8
0
10
45.345674
20
22.039485
11
45.345674
21
12.202289
0
LINE
8
0
10
45.345674
20
12.202289
11
42.351229
21
12.202289
0
LINE
8
0
10
33.442032
20
12.202289
11
34.842893
21
22.039485
0
LINE
8
0
10
34.842893
20
22.039485
11
38.756419
21
22.039485
0
LINE
8
0
10
38.756419
20
22.039485
11
40.261050
21
12.202289
0
LINE
8
0
10
40.261050
20
12.202289
11
37.586947
21
12.202289
0
LINE
8
0
10
37.586947
20
12.202289
11
36.744067
21
19.385718
0
LINE
8
0
10
36.744067
20
19.384845
11
36.406478
21
15.524473
0
LINE
8
0
10
36.406478
20
15.524473
11
36.116019
21
12.202633
0
LINE
8
0
10
36.116019
20
12.202289
11
33.442032
21
12.202289
0
LINE
8
0
10
26.230188
20
15.657743
11
26.230188
21
18.065449
0
LINE
8
0
10
26.230183
20
18.065502
11
26.363602
21
20.011166
0
LINE
8
0
10
26.363602
20
20.011166
11
26.572989
21
20.609672
0
LINE
8
0
10
26.572989
20
20.609672
11
26.934322
21
21.167420
0
LINE
8
0
10
26.934322
20
21.167420
11
27.433705
21
21.634376
0
LINE
8
0
10
27.433705
20
21.634376
11
28.057239
21
21.960507
0
LINE
8
0
10
28.057239
20
21.960507
11
29.632277
21
22.216227
0
LINE
8
0
10
29.632277
20
22.216227
11
31.314795
21
21.997575
0
LINE
8
0
10
31.314795
20
21.997575
11
31.927213
21
21.723315
0
LINE
8
0
10
31.927213
20
21.723315
11
32.385830
21
21.337891
0
LINE
8
0
10
32.385830
20
21.337891
11
32.930609
21
20.270563
0
LINE
8
0
10
32.930609
20
20.270563
11
33.093671
21
18.391627
0
LINE
8
0
10
33.093682
20
18.390886
11
33.093682
21
15.872056
0
LINE
8
0
10
33.093671
20
15.871579
11
33.019552
21
14.650449
0
LINE
8
0
10
33.019552
20
14.650449
11
32.797195
21
13.729515
0
LINE
8
0
10
32.797195
20
13.729515
11
32.382124
21
13.034634
0
LINE
8
0
10
32.382124
20
13.034634
11
31.729870
21
12.491717
0
LINE
8
0
10
31.729870
20
12.491717
11
30.851551
21
12.141495
0
LINE
8
0
10
30.851551
20
12.141495
11
29.758285
21
12.024754
0
LINE
8
0
10
29.758285
20
12.024754
11
28.821595
21
12.099803
0
LINE
8
0
10
28.821595
20
12.099803
11
28.027589
21
12.324950
0
LINE
8
0
10
28.027589
20
12.324950
11
27.387381
21
12.670522
0
LINE
8
0
10
27.387381
20
12.670522
11
26.912086
21
13.106899
0
LINE
8
0
10
26.912086
20
13.106899
11
26.374721
21
14.100117
0
LINE
8
0
10
26.374721
20
14.100117
11
26.230183
21
15.656632
0
LINE
8
0
10
29.224621
20
14.915429
11
29.306150
21
13.962983
0
LINE
8
0
10
29.306150
20
13.962983
11
29.654518
21
13.766557
0
LINE
8
0
10
29.654518
20
13.766557
11
30.010295
21
13.962983
0
LINE
8
0
10
30.010295
20
13.962983
11
30.099235
21
14.915429
0
LINE
8
0
10
30.099237
20
14.914265
11
30.099237
21
19.353968
0
LINE
8
0
10
30.099235
20
19.355185
11
30.010295
21
20.263154
0
LINE
8
0
10
30.010295
20
20.263154
11
29.661927
21
20.474398
0
LINE
8
0
10
29.661927
20
20.474398
11
29.309859
21
20.281702
0
LINE
8
0
10
29.309859
20
20.281702
11
29.224621
21
19.451546
0
LINE
8
0
10
29.224632
20
19.451864
11
29.224632
21
14.914265
0
LINE
8
0
10
16.112851
20
19.991613
11
16.112851
21
22.039485
0
LINE
8
0
10
16.112851
20
22.039485
11
22.702079
21
22.039485
0
LINE
8
0
10
22.702079
20
22.039485
11
22.700227
21
20.324988
0
LINE
8
0
10
22.700233
20
20.326152
11
19.220313
21
14.400286
0
LINE
8
0
10
19.220313
20
14.400286
11
18.806166
21
13.387628
0
LINE
8
0
10
18.806166
20
13.387628
11
18.668117
21
12.625120
0
LINE
8
0
10
18.668117
20
12.625120
11
18.835125
21
11.895056
0
LINE
8
0
10
18.835125
20
11.895056
11
19.343537
21
11.654153
0
LINE
8
0
10
19.343537
20
11.654153
11
19.641348
21
11.720861
0
LINE
8
0
10
19.641348
20
11.720861
11
19.851950
21
11.920985
0
LINE
8
0
10
19.851950
20
11.920985
11
20.018948
21
12.980904
0
LINE
8
0
10
20.018943
20
12.980163
11
20.018943
21
14.123162
0
LINE
8
0
10
20.018943
20
14.123162
11
22.702079
21
14.123162
0
LINE
8
0
10
22.702079
20
14.123162
11
22.702079
21
13.683954
0
LINE
8
0
10
22.702088
20
13.685039
11
22.598319
21
12.095160
0
LINE
8
0
10
22.598319
20
12.095160
11
22.086892
21
10.950018
0
LINE
8
0
10
22.086892
20
10.950018
11
21.618086
21
10.455261
0
LINE
8
0
10
21.618086
20
10.455261
11
21.026980
21
10.097638
0
LINE
8
0
10
21.026980
20
10.097638
11
20.309871
21
9.880845
0
LINE
8
0
10
20.309871
20
9.880845
11
19.463052
21
9.808581
0
LINE
8
0
10
19.463052
20
9.808581
11
17.894493
21
10.030010
0
LINE
8
0
10
17.894493
20
10.030010
11
17.273510
21
10.306797
0
LINE
8
0
10
17.273510
20
10.306797
11
16.761391
21
10.694299
0
LINE
8
0
10
16.761391
20
10.694299
11
16.074854
21
11.697703
0
LINE
8
0
10
16.074854
20
11.697703
11
15.846008
21
12.936428
0
LINE
8
0
10
15.846008
20
12.936428
11
15.974806
21
13.996341
0
LINE
8
0
10
15.974806
20
13.996341
11
16.361201
21
15.115560
0
LINE
8
0
10
16.361201
20
15.115560
11
17.377643
21
16.909247
0
LINE
8
0
10
17.377643
20
16.909247
11
19.396581
21
19.992618
0
LINE
8
0
10
19.396591
20
19.991613
11
16.112851
21
19.991613
0
LINE
8
0
10
46.054994
20
93.185851
11
34.055018
21
94.574912
0
LINE
8
0
10
34.055018
20
94.574912
11
34.055018
21
98.472220
0
LINE
8
0
10
34.055020
20
98.471109
11
40.347786
21
99.415564
0
LINE
8
0
10
40.347786
20
99.415564
11
34.055020
21
100.285883
0
LINE
8
0
10
34.055018
20
100.284613
11
34.055018
21
104.160754
0
LINE
8
0
10
34.055018
20
104.160754
11
46.054994
21
105.555107
0
LINE
8
0
10
46.054994
20
105.555107
11
46.054994
21
102.525631
0
LINE
8
0
10
46.054994
20
102.525631
11
41.868048
21
102.194903
0
LINE
8
0
10
41.868048
20
102.194903
11
37.820304
21
101.877403
0
LINE
8
0
10
37.820304
20
101.876318
11
41.450028
21
101.574283
0
LINE
8
0
10
41.450028
20
101.574283
11
46.055005
21
101.013513
0
LINE
8
0
10
46.054994
20
101.012217
11
46.054994
21
97.773721
0
LINE
8
0
10
46.055005
20
97.773218
11
42.097013
21
97.432858
0
LINE
8
0
10
42.097018
20
97.432409
11
37.531236
21
97.088451
0
LINE
8
0
10
37.531236
20
97.088186
11
41.840777
21
96.737336
0
LINE
8
0
10
41.840777
20
96.737336
11
46.055005
21
96.217285
0
LINE
8
0
10
46.054994
20
96.217973
11
46.054994
21
93.185851
0
LINE
8
0
10
40.829565
20
85.285403
11
40.829565
21
88.404837
0
LINE
8
0
10
40.829565
20
88.404837
11
42.915214
21
88.404837
0
LINE
8
0
10
42.915222
20
88.405048
11
44.050530
21
88.505114
0
LINE
8
0
10
44.050530
20
88.505114
11
44.219731
21
88.665405
0
LINE
8
0
10
44.219731
20
88.665405
11
44.276131
21
88.946147
0
LINE
8
0
10
44.276131
20
88.946147
11
44.207571
21
89.261153
0
LINE
8
0
10
44.207571
20
89.261153
11
44.001889
21
89.435334
0
LINE
8
0
10
44.001889
20
89.435334
11
42.815972
21
89.539104
0
LINE
8
0
10
42.815969
20
89.539898
11
37.242169
21
89.539898
0
LINE
8
0
10
37.242169
20
89.539104
11
36.100726
21
89.435334
0
LINE
8
0
10
36.100726
20
89.435334
11
35.900602
21
89.266709
0
LINE
8
0
10
35.900602
20
89.266709
11
35.833894
21
88.968372
0
LINE
8
0
10
35.833894
20
88.968372
11
35.900761
21
88.680241
0
LINE
8
0
10
35.900761
20
88.680241
11
36.101363
21
88.512548
0
LINE
8
0
10
36.101363
20
88.512548
11
37.357053
21
88.405048
0
LINE
8
0
10
37.357053
20
88.404837
11
38.865391
21
88.404837
0
LINE
8
0
10
38.865391
20
88.404837
11
38.865391
21
85.285403
0
LINE
8
0
10
38.865391
20
85.285403
11
38.397743
21
85.285403
0
LINE
8
0
10
38.397743
20
85.284636
11
36.805587
21
85.350411
0
LINE
8
0
10
36.805587
20
85.350411
11
35.755257
21
85.547737
0
LINE
8
0
10
35.755257
20
85.547737
11
35.024093
21
85.970223
0
LINE
8
0
10
35.024093
20
85.970223
11
34.389429
21
86.711426
0
LINE
8
0
10
34.389429
20
86.711426
11
33.949617
21
87.716676
0
LINE
8
0
10
33.949617
20
87.716676
11
33.803013
21
88.931304
0
LINE
8
0
10
33.803013
20
88.931304
11
33.927164
21
90.182080
0
LINE
8
0
10
33.927164
20
90.182080
11
34.299617
21
91.191954
0
LINE
8
0
10
34.299617
20
91.191954
11
34.891647
21
91.931305
0
LINE
8
0
10
34.891647
20
91.931305
11
35.674536
21
92.370460
0
LINE
8
0
10
35.674536
20
92.370460
11
36.774288
21
92.587272
0
LINE
8
0
10
36.774288
20
92.587272
11
38.316905
21
92.659543
0
LINE
8
0
10
38.316905
20
92.659331
11
41.822778
21
92.659331
0
LINE
8
0
10
41.822770
20
92.659543
11
43.768410
21
92.570590
0
LINE
8
0
10
43.768410
20
92.570590
11
44.404914
21
92.393624
0
LINE
8
0
10
44.404914
20
92.393624
11
45.017329
21
92.040630
0
LINE
8
0
10
45.017329
20
92.040630
11
45.553771
21
91.514381
0
LINE
8
0
10
45.553771
20
91.514381
11
45.962356
21
90.817648
0
LINE
8
0
10
45.962356
20
90.817648
11
46.220848
21
89.977326
0
LINE
8
0
10
46.220848
20
89.977326
11
46.307012
21
89.020257
0
LINE
8
0
10
46.307012
20
89.020257
11
46.173770
21
87.762072
0
LINE
8
0
10
46.173770
20
87.762072
11
45.774044
21
86.744790
0
LINE
8
0
10
45.774044
20
86.744790
11
45.175398
21
86.001735
0
LINE
8
0
10
45.175398
20
86.001735
11
44.445391
21
85.566284
0
LINE
8
0
10
44.445391
20
85.566284
11
43.428576
21
85.355048
0
LINE
8
0
10
43.428576
20
85.355048
11
41.969502
21
85.284636
0
LINE
8
0
10
41.969515
20
85.285403
11
40.829565
21
85.285403
0
LINE
8
0
10
108.183925
20
151.348603
11
105.063433
21
151.348603
0
LINE
8
0
10
105.063433
20
151.348603
11
105.063433
21
152.438156
0
LINE
8
0
10
105.063428
20
152.438169
11
104.974483
21
153.727853
0
LINE
8
0
10
104.974483
20
153.727853
11
104.824391
21
153.922416
0
LINE
8
0
10
104.824391
20
153.922416
11
104.552002
21
153.987271
0
LINE
8
0
10
104.552002
20
153.987271
11
104.159167
21
153.764913
0
LINE
8
0
10
104.159167
20
153.764913
11
104.055401
21
152.623467
0
LINE
8
0
10
104.055372
20
152.623364
11
104.055372
21
146.864450
0
LINE
8
0
10
104.055401
20
146.864366
11
104.159167
21
145.800747
0
LINE
8
0
10
104.159167
20
145.800747
11
104.314818
21
145.608962
0
LINE
8
0
10
104.314818
20
145.608962
11
104.574237
21
145.545033
0
LINE
8
0
10
104.574237
20
145.545033
11
104.860525
21
145.617300
0
LINE
8
0
10
104.860525
20
145.617300
11
105.037485
21
145.834101
0
LINE
8
0
10
105.037485
20
145.834101
11
105.159783
21
146.960719
0
LINE
8
0
10
105.159741
20
146.960759
11
105.159741
21
148.383951
0
LINE
8
0
10
105.159741
20
148.383951
11
104.529769
21
148.383951
0
LINE
8
0
10
104.529769
20
148.383951
11
104.529769
21
150.207192
0
LINE
8
0
10
104.529769
20
150.207192
11
108.183925
21
150.207192
0
LINE
8
0
10
108.183925
20
150.207192
11
108.183925
21
143.766184
0
LINE
8
0
10
108.183925
20
143.766184
11
106.222836
21
143.766184
0
LINE
8
0
10
106.222836
20
143.766184
11
105.934440
21
144.626078
0
LINE
8
0
10
105.934337
20
144.625949
11
105.573668
21
144.139537
0
LINE
8
0
10
105.573668
20
144.139537
11
105.129555
21
143.792102
0
LINE
8
0
10
105.129555
20
143.792102
11
104.600150
21
143.583640
0
LINE
8
0
10
104.600150
20
143.583640
11
103.983595
21
143.514152
0
LINE
8
0
10
103.983595
20
143.514152
11
103.222306
21
143.609582
0
LINE
8
0
10
103.222306
20
143.609582
11
102.511159
21
143.895869
0
LINE
8
0
10
102.511159
20
143.895869
11
101.907592
21
144.322984
0
LINE
8
0
10
101.907592
20
144.322984
11
101.469028
21
144.840896
0
LINE
8
0
10
101.469028
20
144.840896
11
101.023959
21
146.023106
0
LINE
8
0
10
101.023959
20
146.023106
11
100.934959
21
147.879804
0
LINE
8
0
10
100.934880
20
147.879920
11
100.934880
21
151.444911
0
LINE
8
0
10
100.934959
20
151.444964
11
101.120260
21
153.942800
0
LINE
8
0
10
101.120260
20
153.942800
11
101.478813
21
154.688630
0
LINE
8
0
10
101.478813
20
154.688630
11
102.183875
21
155.369603
0
LINE
8
0
10
102.183875
20
155.369603
11
103.190978
21
155.856015
0
LINE
8
0
10
103.190978
20
155.856015
11
104.455646
21
156.018152
0
LINE
8
0
10
104.455646
20
156.018152
11
105.710124
21
155.877324
0
LINE
8
0
10
105.710124
20
155.877324
11
106.731123
21
155.454841
0
LINE
8
0
10
106.731123
20
155.454841
11
107.477879
21
154.838721
0
LINE
8
0
10
107.477879
20
154.838721
11
107.909626
21
154.116980
0
LINE
8
0
10
107.909626
20
154.116980
11
108.115308
21
153.167321
0
LINE
8
0
10
108.115308
20
153.167321
11
108.183869
21
151.867445
0
LINE
8
0
10
108.183925
20
151.867450
11
108.183925
21
151.348603
0
LINE
8
0
10
112.297397
20
153.601792
11
112.178863
21
152.308510
0
LINE
8
0
10
112.178924
20
152.308460
11
112.541647
21
152.921481
0
LINE
8
0
10
112.541647
20
152.921481
11
112.977564
21
153.371034
0
LINE
8
0
10
112.977564
20
153.371034
11
113.486674
21
153.657118
0
LINE
8
0
10
113.486674
20
153.657118
11
114.068978
21
153.779735
0
LINE
8
0
10
114.069044
20
153.779856
11
114.069044
21
150.318317
0
LINE
8
0
10
114.068978
20
150.318343
11
112.860826
21
150.095985
0
LINE
8
0
10
112.860826
20
150.095985
11
112.549523
21
149.830080
0
LINE
8
0
10
112.549523
20
149.830080
11
112.386461
21
149.477086
0
LINE
8
0
10
112.386461
20
149.477086
11
112.297516
21
147.650034
0
LINE
8
0
10
112.297397
20
147.649997
11
112.297397
21
143.766184
0
LINE
8
0
10
112.297397
20
143.766184
11
109.303111
21
143.766184
0
LINE
8
0
10
109.303111
20
143.766184
11
109.303111
21
153.601792
0
LINE
8
0
10
109.303111
20
153.601792
11
112.297397
21
153.601792
0
LINE
8
0
10
121.510706
20
150.147926
11
121.510706
21
147.738897
0
LINE
8
0
10
121.510597
20
147.738977
11
121.377184
21
145.793334
0
LINE
8
0
10
121.377184
20
145.793334
11
121.167794
21
145.194817
0
LINE
8
0
10
121.167794
20
145.194817
11
120.806460
21
144.637066
0
LINE
8
0
10
120.806460
20
144.637066
11
120.307077
21
144.170112
0
LINE
8
0
10
120.307077
20
144.170112
11
119.683546
21
143.843984
0
LINE
8
0
10
119.683546
20
143.843984
11
118.108499
21
143.588273
0
LINE
8
0
10
118.108499
20
143.588273
11
116.425981
21
143.806924
0
LINE
8
0
10
116.425981
20
143.806924
11
115.813569
21
144.081168
0
LINE
8
0
10
115.813569
20
144.081168
11
115.354952
21
144.466593
0
LINE
8
0
10
115.354952
20
144.466593
11
114.810173
21
145.533915
0
LINE
8
0
10
114.810173
20
145.533915
11
114.647108
21
147.412852
0
LINE
8
0
10
114.647158
20
147.412931
11
114.647158
21
149.932820
0
LINE
8
0
10
114.647108
20
149.932920
11
114.721229
21
151.154044
0
LINE
8
0
10
114.721229
20
151.154044
11
114.943592
21
152.074981
0
LINE
8
0
10
114.943592
20
152.074981
11
115.358660
21
152.769853
0
LINE
8
0
10
115.358660
20
152.769853
11
116.010914
21
153.312780
0
LINE
8
0
10
116.010914
20
153.312780
11
116.889233
21
153.662996
0
LINE
8
0
10
116.889233
20
153.662996
11
117.982499
21
153.779735
0
LINE
8
0
10
117.982499
20
153.779735
11
118.919187
21
153.704688
0
LINE
8
0
10
118.919187
20
153.704688
11
119.713198
21
153.479549
0
LINE
8
0
10
119.713198
20
153.479549
11
120.353405
21
153.133968
0
LINE
8
0
10
120.353405
20
153.133968
11
120.828698
21
152.697588
0
LINE
8
0
10
120.828698
20
152.697588
11
121.366064
21
151.704383
0
LINE
8
0
10
121.366064
20
151.704383
11
121.510597
21
150.147867
0
LINE
8
0
10
118.516161
20
150.889065
11
118.434627
21
151.841503
0
LINE
8
0
10
118.434627
20
151.841503
11
118.086269
21
152.037921
0
LINE
8
0
10
118.086269
20
152.037921
11
117.730492
21
151.841503
0
LINE
8
0
10
117.730492
20
151.841503
11
117.641547
21
150.889065
0
LINE
8
0
10
117.641444
20
150.889022
11
117.641444
21
146.449320
0
LINE
8
0
10
117.641547
20
146.449296
11
117.730492
21
145.541326
0
LINE
8
0
10
117.730492
20
145.541326
11
118.078853
21
145.330086
0
LINE
8
0
10
118.078853
20
145.330086
11
118.430920
21
145.522798
0
LINE
8
0
10
118.430920
20
145.522798
11
118.516161
21
146.352937
0
LINE
8
0
10
118.516155
20
146.353012
11
118.516155
21
150.889022
0
LINE
8
0
10
129.352417
20
153.601792
11
129.352417
21
143.766184
0
LINE
8
0
10
129.352417
20
143.766184
11
126.306273
21
143.766184
0
LINE
8
0
10
126.306273
20
143.766184
11
126.358131
21
144.583216
0
LINE
8
0
10
126.358028
20
144.583330
11
125.590888
21
143.837036
0
LINE
8
0
10
125.590888
20
143.837036
11
124.542097
21
143.588273
0
LINE
8
0
10
124.542097
20
143.588273
11
123.422890
21
143.825455
0
LINE
8
0
10
123.422890
20
143.825455
11
122.766925
21
144.455473
0
LINE
8
0
10
122.766925
20
144.455473
11
122.503805
21
145.274497
0
LINE
8
0
10
122.503805
20
145.274497
11
122.451918
21
146.968133
0
LINE
8
0
10
122.451828
20
146.968167
11
122.451828
21
153.601792
0
LINE
8
0
10
122.451828
20
153.601792
11
125.446378
21
153.601792
0
LINE
8
0
10
125.446378
20
153.601792
11
125.446378
21
146.908900
0
LINE
8
0
10
125.446354
20
146.908837
11
125.516770
21
145.545033
0
LINE
8
0
10
125.516770
20
145.545033
11
125.647406
21
145.383823
0
LINE
8
0
10
125.647406
20
145.383823
11
125.898487
21
145.330086
0
LINE
8
0
10
125.898487
20
145.330086
11
126.164393
21
145.385676
0
LINE
8
0
10
126.164393
20
145.385676
11
126.295028
21
145.552444
0
LINE
8
0
10
126.295028
20
145.552444
11
126.358028
21
146.982957
0
LINE
8
0
10
126.358131
20
146.982984
11
126.358131
21
153.601792
0
LINE
8
0
10
126.358131
20
153.601792
11
129.352417
21
153.601792
0
LINE
8
0
10
133.473562
20
153.601792
11
133.421703
21
152.732901
0
LINE
8
0
10
133.421637
20
152.732796
11
134.303662
21
153.519853
0
LINE
8
0
10
134.303662
20
153.519853
11
135.356162
21
153.779735
0
LINE
8
0
10
135.356162
20
153.779735
11
136.005637
21
153.686159
0
LINE
8
0
10
136.005637
20
153.686159
11
136.560610
21
153.405432
0
LINE
8
0
10
136.560610
20
153.405432
11
136.972902
21
153.002405
0
LINE
8
0
10
136.972902
20
153.002405
11
137.194334
21
152.541936
0
LINE
8
0
10
137.194334
20
152.541936
11
137.320339
21
150.881657
0
LINE
8
0
10
137.320334
20
150.881614
11
137.320334
21
146.738244
0
LINE
8
0
10
137.320339
20
146.738361
11
137.160981
21
144.829778
0
LINE
8
0
10
137.160981
20
144.829778
11
136.918236
21
144.320204
0
LINE
8
0
10
136.918236
20
144.320204
11
136.508725
21
143.925515
0
LINE
8
0
10
136.508725
20
143.925515
11
135.964871
21
143.672581
0
LINE
8
0
10
135.964871
20
143.672581
11
135.319102
21
143.588270
0
LINE
8
0
10
135.319102
20
143.588270
11
134.288840
21
143.848154
0
LINE
8
0
10
134.288840
20
143.848154
11
133.421637
21
144.620390
0
LINE
8
0
10
133.421703
20
144.620257
11
133.421703
21
142.365217
0
LINE
8
0
10
133.421703
20
142.365217
11
130.427153
21
142.365217
0
LINE
8
0
10
130.427153
20
142.365217
11
130.427153
21
153.601792
0
LINE
8
0
10
130.427153
20
153.601792
11
133.473562
21
153.601792
0
LINE
8
0
10
134.325900
20
150.740827
11
134.259191
21
151.845212
0
LINE
8
0
10
134.259191
20
151.845212
11
133.888594
21
152.037921
0
LINE
8
0
10
133.888594
20
152.037921
11
133.506875
21
151.815563
0
LINE
8
0
10
133.506875
20
151.815563
11
133.421637
21
150.740827
0
LINE
8
0
10
133.421703
20
150.740856
11
133.421703
21
146.664161
0
LINE
8
0
10
133.421637
20
146.664241
11
133.510582
21
145.552444
0
LINE
8
0
10
133.510582
20
145.552444
11
133.896003
21
145.330086
0
LINE
8
0
10
133.896003
20
145.330086
11
134.255486
21
145.533915
0
LINE
8
0
10
134.255486
20
145.533915
11
134.325900
21
146.523414
0
LINE
8
0
10
134.325783
20
146.523403
11
134.325783
21
150.740856
0
LINE
8
0
10
145.087962
20
148.509892
11
141.211556
21
148.509892
0
LINE
8
0
10
141.211556
20
148.509892
11
141.211556
21
146.382645
0
LINE
8
0
10
141.211625
20
146.382587
11
141.307981
21
145.522798
0
LINE
8
0
10
141.307981
20
145.522798
11
141.678577
21
145.330086
0
LINE
8
0
10
141.678577
20
145.330086
11
141.963012
21
145.394015
0
LINE
8
0
10
141.963012
20
145.394015
11
142.134414
21
145.585800
0
LINE
8
0
10
142.134414
20
145.585800
11
142.249303
21
146.575296
0
LINE
8
0
10
142.249251
20
146.575261
11
142.249251
21
147.872512
0
LINE
8
0
10
142.249251
20
147.872512
11
145.087962
21
147.872512
0
LINE
8
0
10
145.087962
20
147.872512
11
145.087962
21
147.145967
0
LINE
8
0
10
145.088086
20
147.146020
11
144.973204
21
145.745156
0
LINE
8
0
10
144.973204
20
145.745156
11
144.435831
21
144.700069
0
LINE
8
0
10
144.435831
20
144.700069
11
143.956834
21
144.213658
0
LINE
8
0
10
143.956834
20
144.213658
11
143.364804
21
143.866222
0
LINE
8
0
10
143.364804
20
143.866222
11
142.633797
21
143.657760
0
LINE
8
0
10
142.633797
20
143.657760
11
141.737875
21
143.588273
0
LINE
8
0
10
141.737875
20
143.588273
11
140.844733
21
143.656833
0
LINE
8
0
10
140.844733
20
143.656833
11
140.062768
21
143.862516
0
LINE
8
0
10
140.062768
20
143.862516
11
139.416999
21
144.187716
0
LINE
8
0
10
139.416999
20
144.187716
11
138.932441
21
144.614831
0
LINE
8
0
10
138.932441
20
144.614831
11
138.372840
21
145.667331
0
LINE
8
0
10
138.372840
20
145.667331
11
138.217186
21
147.338731
0
LINE
8
0
10
138.217270
20
147.338848
11
138.217270
21
150.207192
0
LINE
8
0
10
138.217186
20
150.207163
11
138.304276
21
151.360652
0
LINE
8
0
10
138.304276
20
151.360652
11
138.565549
21
152.241751
0
LINE
8
0
10
138.565549
20
152.241751
11
139.025091
21
152.899564
0
LINE
8
0
10
139.025091
20
152.899564
11
139.706992
21
153.383196
0
LINE
8
0
10
139.706992
20
153.383196
11
140.559371
21
153.680600
0
LINE
8
0
10
140.559371
20
153.680600
11
141.530339
21
153.779735
0
LINE
8
0
10
141.530339
20
153.779735
11
142.680121
21
153.660217
0
LINE
8
0
10
142.680121
20
153.660217
11
143.609398
21
153.301662
0
LINE
8
0
10
143.609398
20
153.301662
11
144.306124
21
152.745766
0
LINE
8
0
10
144.306124
20
152.745766
11
144.758254
21
152.034217
0
LINE
8
0
10
144.758254
20
152.034217
11
145.005628
21
151.084556
0
LINE
8
0
10
145.005628
20
151.084556
11
145.088086
21
149.814329
0
LINE
8
0
10
145.087962
20
149.814286
11
145.087962
21
148.509892
0
LINE
8
0
10
142.086267
20
150.110884
11
142.086267
21
150.829756
0
LINE
8
0
10
142.086238
20
150.829772
11
142.004704
21
151.815563
0
LINE
8
0
10
142.004704
20
151.815563
11
141.671166
21
152.037921
0
LINE
8
0
10
141.671166
20
152.037921
11
141.285745
21
151.848916
0
LINE
8
0
10
141.285745
20
151.848916
11
141.211625
21
150.829772
0
LINE
8
0
10
141.211556
20
150.829756
11
141.211556
21
150.110884
0
LINE
8
0
10
141.211556
20
150.110884
11
142.086267
21
150.110884
0
LINE
8
0
10
153.359884
20
155.766081
11
153.359884
21
143.766184
0
LINE
8
0
10
153.359884
20
143.766184
11
150.365334
21
143.766184
0
LINE
8
0
10
150.365334
20
143.766184
11
150.365334
21
150.199784
0
LINE
8
0
10
150.365413
20
150.199752
11
150.298704
21
151.874859
0
LINE
8
0
10
150.298704
20
151.874859
11
149.931812
21
152.301049
0
LINE
8
0
10
149.931812
20
152.301049
11
148.593951
21
152.445580
0
LINE
8
0
10
148.593951
20
152.445564
11
148.297353
21
152.445564
0
LINE
8
0
10
148.297353
20
152.445564
11
148.297353
21
153.844679
0
LINE
8
0
10
148.297472
20
153.844592
11
149.318009
21
154.139970
0
LINE
8
0
10
149.318009
20
154.139970
11
150.207909
21
154.558687
0
LINE
8
0
10
150.207909
20
154.558687
11
150.967172
21
155.100746
0
LINE
8
0
10
150.967172
20
155.100746
11
151.595798
21
155.766144
0
LINE
8
0
10
151.595910
20
155.766081
11
153.359884
21
155.766081
 0 
ENDSEC
 0 
EOF